%TF.GenerationSoftware,KiCad,Pcbnew,9.0.0-1.fc40*%
%TF.CreationDate,2025-03-13T13:33:29-07:00*%
%TF.ProjectId,HearingAidBattery-Holder,48656172-696e-4674-9169-644261747465,1.0*%
%TF.SameCoordinates,Original*%
%TF.FileFunction,Copper,L1,Top*%
%TF.FilePolarity,Positive*%
%FSLAX46Y46*%
G04 Gerber Fmt 4.6, Leading zero omitted, Abs format (unit mm)*
G04 Created by KiCad (PCBNEW 9.0.0-1.fc40) date 2025-03-13 13:33:29*
%MOMM*%
%LPD*%
G01*
G04 APERTURE LIST*
%TA.AperFunction,SMDPad,CuDef*%
%ADD10R,4.000000X4.000000*%
%TD*%
%TA.AperFunction,ComponentPad*%
%ADD11C,2.670000*%
%TD*%
%TA.AperFunction,SMDPad,CuDef*%
%ADD12R,4.060000X4.060000*%
%TD*%
%TA.AperFunction,ComponentPad*%
%ADD13C,0.900000*%
%TD*%
%TA.AperFunction,ComponentPad*%
%ADD14C,8.600000*%
%TD*%
%TA.AperFunction,ComponentPad*%
%ADD15C,1.790000*%
%TD*%
%TA.AperFunction,SMDPad,CuDef*%
%ADD16R,3.170000X3.170000*%
%TD*%
%TA.AperFunction,ViaPad*%
%ADD17C,1.000000*%
%TD*%
%TA.AperFunction,Conductor*%
%ADD18C,2.000000*%
%TD*%
G04 APERTURE END LIST*
D10*
%TO.P,TP2,1,1*%
%TO.N,Net-(BT1-+)*%
X111125000Y-78745581D03*
%TD*%
D11*
%TO.P,BT1,1,+*%
%TO.N,Net-(BT1-+)*%
X134177790Y-75315581D03*
X134177790Y-88525581D03*
D12*
%TO.P,BT1,2,-*%
%TO.N,Net-(BT1--)*%
X134177790Y-81920581D03*
%TD*%
D13*
%TO.P,H4,1,1*%
%TO.N,Net-(BT1--)*%
X117425000Y-97795581D03*
X118369581Y-95515162D03*
X118369581Y-100076000D03*
X120650000Y-94570581D03*
D14*
X120650000Y-97795581D03*
D13*
X120650000Y-101020581D03*
X122930419Y-95515162D03*
X122930419Y-100076000D03*
X123875000Y-97795581D03*
%TD*%
%TO.P,H3,1,1*%
%TO.N,Net-(BT1--)*%
X98375000Y-97795581D03*
X99319581Y-95515162D03*
X99319581Y-100076000D03*
X101600000Y-94570581D03*
D14*
X101600000Y-97795581D03*
D13*
X101600000Y-101020581D03*
X103880419Y-95515162D03*
X103880419Y-100076000D03*
X104825000Y-97795581D03*
%TD*%
D15*
%TO.P,BT2,1,+*%
%TO.N,Net-(BT1-+)*%
X136082790Y-93519419D03*
X136082790Y-102049419D03*
D16*
%TO.P,BT2,2,-*%
%TO.N,Net-(BT1--)*%
X136082790Y-97784419D03*
%TD*%
D13*
%TO.P,H2,1,1*%
%TO.N,Net-(BT1-+)*%
X98375000Y-78745581D03*
X99319581Y-76465162D03*
X99319581Y-81026000D03*
X101600000Y-75520581D03*
D14*
X101600000Y-78745581D03*
D13*
X101600000Y-81970581D03*
X103880419Y-76465162D03*
X103880419Y-81026000D03*
X104825000Y-78745581D03*
%TD*%
D10*
%TO.P,TP1,1,1*%
%TO.N,Net-(BT1--)*%
X111125000Y-97795581D03*
%TD*%
D13*
%TO.P,H1,1,1*%
%TO.N,Net-(BT1-+)*%
X117425000Y-78745581D03*
X118369581Y-76465162D03*
X118369581Y-81026000D03*
X120650000Y-75520581D03*
D14*
X120650000Y-78745581D03*
D13*
X120650000Y-81970581D03*
X122930419Y-76465162D03*
X122930419Y-81026000D03*
X123875000Y-78745581D03*
%TD*%
D17*
%TO.N,Net-(BT1--)*%
X135382000Y-81915000D03*
X137160000Y-97790000D03*
X109982000Y-97790000D03*
X112268000Y-97790000D03*
X135128000Y-97790000D03*
X133096000Y-81915000D03*
X136144000Y-97790000D03*
X111125000Y-97790000D03*
X134177790Y-81920581D03*
%TD*%
D18*
%TO.N,Net-(BT1-+)*%
X127827790Y-95885000D02*
X127827790Y-91694000D01*
X134177790Y-91614419D02*
X127907371Y-91614419D01*
X127907371Y-91614419D02*
X127827790Y-91694000D01*
X134177790Y-88525581D02*
X134177790Y-91614419D01*
X134177790Y-91614419D02*
X136082790Y-93519419D01*
X127827790Y-78740000D02*
X127827790Y-81915000D01*
X111125000Y-78745581D02*
X117425000Y-78745581D01*
X136082790Y-102049419D02*
X130182209Y-102049419D01*
X134177790Y-75315581D02*
X131252209Y-75315581D01*
X127827790Y-91694000D02*
X127827790Y-88265000D01*
X130182209Y-102049419D02*
X127827790Y-99695000D01*
X104825000Y-78745581D02*
X111125000Y-78745581D01*
X131252209Y-75315581D02*
X127827790Y-78740000D01*
X127827790Y-99695000D02*
X127827790Y-95885000D01*
X111125000Y-88265000D02*
X127827790Y-88265000D01*
X127827790Y-88265000D02*
X127827790Y-81915000D01*
X111125000Y-78745581D02*
X111125000Y-88265000D01*
%TO.N,Net-(BT1--)*%
X111125000Y-97795581D02*
X111125000Y-97790000D01*
X117419419Y-97790000D02*
X117425000Y-97795581D01*
%TD*%
%TA.AperFunction,NonConductor*%
G36*
X140158539Y-68520185D02*
G01*
X140204294Y-68572989D01*
X140215500Y-68624500D01*
X140215500Y-104015500D01*
X140195815Y-104082539D01*
X140143011Y-104128294D01*
X140091500Y-104139500D01*
X95680500Y-104139500D01*
X95613461Y-104119815D01*
X95567706Y-104067011D01*
X95556500Y-104015500D01*
X95556500Y-97585983D01*
X96799500Y-97585983D01*
X96799500Y-98005178D01*
X96836035Y-98422771D01*
X96836035Y-98422775D01*
X96908824Y-98835579D01*
X96908828Y-98835596D01*
X97017316Y-99240483D01*
X97017319Y-99240493D01*
X97017320Y-99240494D01*
X97160691Y-99634403D01*
X97160694Y-99634410D01*
X97160695Y-99634412D01*
X97160698Y-99634420D01*
X97337843Y-100014307D01*
X97337851Y-100014323D01*
X97417989Y-100153125D01*
X97547443Y-100377345D01*
X97547447Y-100377351D01*
X97547454Y-100377362D01*
X97787879Y-100720725D01*
X97942423Y-100904902D01*
X98057329Y-101041841D01*
X98353740Y-101338252D01*
X98487255Y-101450285D01*
X98674855Y-101607701D01*
X99018218Y-101848126D01*
X99018225Y-101848130D01*
X99018236Y-101848138D01*
X99381264Y-102057733D01*
X99381273Y-102057737D01*
X99761160Y-102234882D01*
X99761164Y-102234883D01*
X99761178Y-102234890D01*
X100155087Y-102378261D01*
X100155093Y-102378262D01*
X100155097Y-102378264D01*
X100239155Y-102400787D01*
X100559992Y-102486755D01*
X100972812Y-102559546D01*
X101390404Y-102596080D01*
X101390405Y-102596081D01*
X101390406Y-102596081D01*
X101809595Y-102596081D01*
X101809595Y-102596080D01*
X102227188Y-102559546D01*
X102640008Y-102486755D01*
X103044913Y-102378261D01*
X103438822Y-102234890D01*
X103818736Y-102057733D01*
X104181764Y-101848138D01*
X104525143Y-101607702D01*
X104846260Y-101338252D01*
X105142671Y-101041841D01*
X105412121Y-100720724D01*
X105652557Y-100377345D01*
X105862152Y-100014317D01*
X106039309Y-99634403D01*
X106182680Y-99240494D01*
X106291174Y-98835589D01*
X106363965Y-98422769D01*
X106400500Y-98005175D01*
X106400500Y-97585987D01*
X106363965Y-97168393D01*
X106291174Y-96755573D01*
X106182680Y-96350668D01*
X106039309Y-95956759D01*
X106039301Y-95956741D01*
X105964716Y-95796792D01*
X105941831Y-95747716D01*
X108624500Y-95747716D01*
X108624500Y-99843451D01*
X108624501Y-99843457D01*
X108630908Y-99903064D01*
X108681202Y-100037909D01*
X108681206Y-100037916D01*
X108767452Y-100153125D01*
X108767455Y-100153128D01*
X108882664Y-100239374D01*
X108882671Y-100239378D01*
X109017517Y-100289672D01*
X109017516Y-100289672D01*
X109024444Y-100290416D01*
X109077127Y-100296081D01*
X113172872Y-100296080D01*
X113232483Y-100289672D01*
X113367331Y-100239377D01*
X113482546Y-100153127D01*
X113568796Y-100037912D01*
X113619091Y-99903064D01*
X113625500Y-99843454D01*
X113625499Y-97585983D01*
X115849500Y-97585983D01*
X115849500Y-98005178D01*
X115886035Y-98422771D01*
X115886035Y-98422775D01*
X115958824Y-98835579D01*
X115958828Y-98835596D01*
X116067316Y-99240483D01*
X116067319Y-99240493D01*
X116067320Y-99240494D01*
X116210691Y-99634403D01*
X116210694Y-99634410D01*
X116210695Y-99634412D01*
X116210698Y-99634420D01*
X116387843Y-100014307D01*
X116387851Y-100014323D01*
X116467989Y-100153125D01*
X116597443Y-100377345D01*
X116597447Y-100377351D01*
X116597454Y-100377362D01*
X116837879Y-100720725D01*
X116992423Y-100904902D01*
X117107329Y-101041841D01*
X117403740Y-101338252D01*
X117537255Y-101450285D01*
X117724855Y-101607701D01*
X118068218Y-101848126D01*
X118068225Y-101848130D01*
X118068236Y-101848138D01*
X118431264Y-102057733D01*
X118431273Y-102057737D01*
X118811160Y-102234882D01*
X118811164Y-102234883D01*
X118811178Y-102234890D01*
X119205087Y-102378261D01*
X119205093Y-102378262D01*
X119205097Y-102378264D01*
X119289155Y-102400787D01*
X119609992Y-102486755D01*
X120022812Y-102559546D01*
X120440404Y-102596080D01*
X120440405Y-102596081D01*
X120440406Y-102596081D01*
X120859595Y-102596081D01*
X120859595Y-102596080D01*
X121277188Y-102559546D01*
X121690008Y-102486755D01*
X122094913Y-102378261D01*
X122488822Y-102234890D01*
X122868736Y-102057733D01*
X123231764Y-101848138D01*
X123575143Y-101607702D01*
X123896260Y-101338252D01*
X124192671Y-101041841D01*
X124462121Y-100720724D01*
X124702557Y-100377345D01*
X124912152Y-100014317D01*
X125089309Y-99634403D01*
X125232680Y-99240494D01*
X125341174Y-98835589D01*
X125413965Y-98422769D01*
X125450500Y-98005175D01*
X125450500Y-97585987D01*
X125413965Y-97168393D01*
X125341174Y-96755573D01*
X125232680Y-96350668D01*
X125089309Y-95956759D01*
X124912152Y-95576845D01*
X124702557Y-95213817D01*
X124702549Y-95213806D01*
X124702545Y-95213799D01*
X124462120Y-94870436D01*
X124192668Y-94549318D01*
X123896262Y-94252912D01*
X123575144Y-93983460D01*
X123231781Y-93743035D01*
X123231770Y-93743028D01*
X123231764Y-93743024D01*
X123123904Y-93680750D01*
X122868742Y-93533432D01*
X122868726Y-93533424D01*
X122488839Y-93356279D01*
X122488831Y-93356276D01*
X122488829Y-93356275D01*
X122488822Y-93356272D01*
X122094913Y-93212901D01*
X122094912Y-93212900D01*
X122094902Y-93212897D01*
X121690015Y-93104409D01*
X121690018Y-93104409D01*
X121690008Y-93104407D01*
X121690002Y-93104405D01*
X121689998Y-93104405D01*
X121277192Y-93031616D01*
X120859597Y-92995081D01*
X120859594Y-92995081D01*
X120440406Y-92995081D01*
X120440402Y-92995081D01*
X120022809Y-93031616D01*
X120022805Y-93031616D01*
X119610001Y-93104405D01*
X119609984Y-93104409D01*
X119205097Y-93212897D01*
X119008132Y-93284586D01*
X118811178Y-93356272D01*
X118811174Y-93356273D01*
X118811168Y-93356276D01*
X118811160Y-93356279D01*
X118431273Y-93533424D01*
X118431257Y-93533432D01*
X118068244Y-93743019D01*
X118068218Y-93743035D01*
X117724855Y-93983460D01*
X117403737Y-94252912D01*
X117107331Y-94549318D01*
X116837879Y-94870436D01*
X116597454Y-95213799D01*
X116597438Y-95213825D01*
X116387851Y-95576838D01*
X116387843Y-95576854D01*
X116210698Y-95956741D01*
X116210695Y-95956749D01*
X116210692Y-95956755D01*
X116210691Y-95956759D01*
X116210571Y-95957090D01*
X116067316Y-96350678D01*
X115958828Y-96755565D01*
X115958824Y-96755582D01*
X115886035Y-97168386D01*
X115886035Y-97168390D01*
X115849500Y-97585983D01*
X113625499Y-97585983D01*
X113625499Y-95747709D01*
X113619091Y-95688098D01*
X113577596Y-95576845D01*
X113568797Y-95553252D01*
X113568793Y-95553245D01*
X113482547Y-95438036D01*
X113482544Y-95438033D01*
X113367335Y-95351787D01*
X113367328Y-95351783D01*
X113232482Y-95301489D01*
X113232483Y-95301489D01*
X113172883Y-95295082D01*
X113172881Y-95295081D01*
X113172873Y-95295081D01*
X113172864Y-95295081D01*
X109077129Y-95295081D01*
X109077123Y-95295082D01*
X109017516Y-95301489D01*
X108882671Y-95351783D01*
X108882664Y-95351787D01*
X108767455Y-95438033D01*
X108767452Y-95438036D01*
X108681206Y-95553245D01*
X108681202Y-95553252D01*
X108630908Y-95688098D01*
X108624501Y-95747697D01*
X108624501Y-95747704D01*
X108624500Y-95747716D01*
X105941831Y-95747716D01*
X105862156Y-95576854D01*
X105862148Y-95576838D01*
X105782010Y-95438035D01*
X105652557Y-95213817D01*
X105652549Y-95213806D01*
X105652545Y-95213799D01*
X105412120Y-94870436D01*
X105142668Y-94549318D01*
X104846262Y-94252912D01*
X104525144Y-93983460D01*
X104181781Y-93743035D01*
X104181770Y-93743028D01*
X104181764Y-93743024D01*
X104073904Y-93680750D01*
X103818742Y-93533432D01*
X103818726Y-93533424D01*
X103438839Y-93356279D01*
X103438831Y-93356276D01*
X103438829Y-93356275D01*
X103438822Y-93356272D01*
X103044913Y-93212901D01*
X103044912Y-93212900D01*
X103044902Y-93212897D01*
X102640015Y-93104409D01*
X102640018Y-93104409D01*
X102640008Y-93104407D01*
X102640002Y-93104405D01*
X102639998Y-93104405D01*
X102227192Y-93031616D01*
X101809597Y-92995081D01*
X101809594Y-92995081D01*
X101390406Y-92995081D01*
X101390402Y-92995081D01*
X100972809Y-93031616D01*
X100972805Y-93031616D01*
X100560001Y-93104405D01*
X100559984Y-93104409D01*
X100155097Y-93212897D01*
X99958132Y-93284586D01*
X99761178Y-93356272D01*
X99761174Y-93356273D01*
X99761168Y-93356276D01*
X99761160Y-93356279D01*
X99381273Y-93533424D01*
X99381257Y-93533432D01*
X99018244Y-93743019D01*
X99018218Y-93743035D01*
X98674855Y-93983460D01*
X98353737Y-94252912D01*
X98057331Y-94549318D01*
X97787879Y-94870436D01*
X97547454Y-95213799D01*
X97547438Y-95213825D01*
X97337851Y-95576838D01*
X97337843Y-95576854D01*
X97160698Y-95956741D01*
X97160695Y-95956749D01*
X97160692Y-95956755D01*
X97160691Y-95956759D01*
X97160571Y-95957090D01*
X97017316Y-96350678D01*
X96908828Y-96755565D01*
X96908824Y-96755582D01*
X96836035Y-97168386D01*
X96836035Y-97168390D01*
X96799500Y-97585983D01*
X95556500Y-97585983D01*
X95556500Y-78535983D01*
X96799500Y-78535983D01*
X96799500Y-78955178D01*
X96836035Y-79372771D01*
X96836035Y-79372775D01*
X96908824Y-79785579D01*
X96908828Y-79785596D01*
X97017316Y-80190483D01*
X97017319Y-80190493D01*
X97017320Y-80190494D01*
X97160691Y-80584403D01*
X97160694Y-80584410D01*
X97160695Y-80584412D01*
X97160698Y-80584420D01*
X97337843Y-80964307D01*
X97337851Y-80964323D01*
X97351473Y-80987916D01*
X97547443Y-81327345D01*
X97547447Y-81327351D01*
X97547454Y-81327362D01*
X97787879Y-81670725D01*
X97893760Y-81796908D01*
X98057329Y-81991841D01*
X98353740Y-82288252D01*
X98487255Y-82400285D01*
X98674855Y-82557701D01*
X99018218Y-82798126D01*
X99018225Y-82798130D01*
X99018236Y-82798138D01*
X99381264Y-83007733D01*
X99381273Y-83007737D01*
X99761160Y-83184882D01*
X99761164Y-83184883D01*
X99761178Y-83184890D01*
X100155087Y-83328261D01*
X100155093Y-83328262D01*
X100155097Y-83328264D01*
X100265359Y-83357808D01*
X100559992Y-83436755D01*
X100972812Y-83509546D01*
X101390404Y-83546080D01*
X101390405Y-83546081D01*
X101390406Y-83546081D01*
X101809595Y-83546081D01*
X101809595Y-83546080D01*
X102227188Y-83509546D01*
X102640008Y-83436755D01*
X103044913Y-83328261D01*
X103438822Y-83184890D01*
X103818736Y-83007733D01*
X104181764Y-82798138D01*
X104525143Y-82557702D01*
X104846260Y-82288252D01*
X105142671Y-81991841D01*
X105412121Y-81670724D01*
X105652557Y-81327345D01*
X105862152Y-80964317D01*
X106039309Y-80584403D01*
X106132752Y-80327669D01*
X106174179Y-80271406D01*
X106239447Y-80246471D01*
X106249274Y-80246081D01*
X108500501Y-80246081D01*
X108567540Y-80265766D01*
X108613295Y-80318570D01*
X108624501Y-80370081D01*
X108624501Y-80793457D01*
X108630908Y-80853064D01*
X108681202Y-80987909D01*
X108681206Y-80987916D01*
X108767452Y-81103125D01*
X108767455Y-81103128D01*
X108882664Y-81189374D01*
X108882671Y-81189378D01*
X108927618Y-81206142D01*
X109017517Y-81239672D01*
X109077127Y-81246081D01*
X109500500Y-81246080D01*
X109567539Y-81265764D01*
X109613294Y-81318568D01*
X109624500Y-81370080D01*
X109624500Y-88383097D01*
X109661446Y-88616368D01*
X109734433Y-88840996D01*
X109841657Y-89051433D01*
X109980483Y-89242510D01*
X110147490Y-89409517D01*
X110338567Y-89548343D01*
X110361999Y-89560282D01*
X110549003Y-89655566D01*
X110549005Y-89655566D01*
X110549008Y-89655568D01*
X110669412Y-89694689D01*
X110773631Y-89728553D01*
X111006903Y-89765500D01*
X111006908Y-89765500D01*
X111243092Y-89765500D01*
X126203290Y-89765500D01*
X126270329Y-89785185D01*
X126316084Y-89837989D01*
X126327290Y-89889500D01*
X126327290Y-99813097D01*
X126364236Y-100046368D01*
X126437223Y-100270996D01*
X126544447Y-100481434D01*
X126683273Y-100672510D01*
X129204699Y-103193936D01*
X129395775Y-103332762D01*
X129548457Y-103410557D01*
X129606212Y-103439985D01*
X129606214Y-103439985D01*
X129606217Y-103439987D01*
X129726621Y-103479108D01*
X129830840Y-103512972D01*
X130064112Y-103549919D01*
X130064117Y-103549919D01*
X136200887Y-103549919D01*
X136434158Y-103512972D01*
X136658782Y-103439987D01*
X136869223Y-103332762D01*
X137060300Y-103193936D01*
X137227307Y-103026929D01*
X137366133Y-102835852D01*
X137473358Y-102625411D01*
X137546343Y-102400787D01*
X137549911Y-102378261D01*
X137583290Y-102167516D01*
X137583290Y-101931321D01*
X137546343Y-101698050D01*
X137473356Y-101473422D01*
X137366132Y-101262985D01*
X137227307Y-101071909D01*
X137060300Y-100904902D01*
X136869223Y-100766076D01*
X136780217Y-100720725D01*
X136658786Y-100658852D01*
X136434158Y-100585865D01*
X136200887Y-100548919D01*
X136200882Y-100548919D01*
X130855098Y-100548919D01*
X130788059Y-100529234D01*
X130767417Y-100512600D01*
X129364609Y-99109792D01*
X129331124Y-99048469D01*
X129328290Y-99022111D01*
X129328290Y-96151554D01*
X133997290Y-96151554D01*
X133997290Y-99417289D01*
X133997291Y-99417295D01*
X134003698Y-99476902D01*
X134053992Y-99611747D01*
X134053996Y-99611754D01*
X134140242Y-99726963D01*
X134140245Y-99726966D01*
X134255454Y-99813212D01*
X134255461Y-99813216D01*
X134390307Y-99863510D01*
X134390306Y-99863510D01*
X134397234Y-99864254D01*
X134449917Y-99869919D01*
X137715662Y-99869918D01*
X137775273Y-99863510D01*
X137910121Y-99813215D01*
X138025336Y-99726965D01*
X138111586Y-99611750D01*
X138161881Y-99476902D01*
X138168290Y-99417292D01*
X138168289Y-96151547D01*
X138161881Y-96091936D01*
X138111586Y-95957088D01*
X138111585Y-95957087D01*
X138111583Y-95957083D01*
X138025337Y-95841874D01*
X138025334Y-95841871D01*
X137910125Y-95755625D01*
X137910118Y-95755621D01*
X137775272Y-95705327D01*
X137775273Y-95705327D01*
X137715673Y-95698920D01*
X137715671Y-95698919D01*
X137715663Y-95698919D01*
X137715654Y-95698919D01*
X134449919Y-95698919D01*
X134449913Y-95698920D01*
X134390306Y-95705327D01*
X134255461Y-95755621D01*
X134255454Y-95755625D01*
X134140245Y-95841871D01*
X134140242Y-95841874D01*
X134053996Y-95957083D01*
X134053992Y-95957090D01*
X134003698Y-96091936D01*
X133997291Y-96151535D01*
X133997291Y-96151542D01*
X133997290Y-96151554D01*
X129328290Y-96151554D01*
X129328290Y-93238919D01*
X129347975Y-93171880D01*
X129400779Y-93126125D01*
X129452290Y-93114919D01*
X133504901Y-93114919D01*
X133571940Y-93134604D01*
X133592582Y-93151238D01*
X135105280Y-94663936D01*
X135296357Y-94802762D01*
X135395781Y-94853421D01*
X135506793Y-94909985D01*
X135506795Y-94909985D01*
X135506798Y-94909987D01*
X135627202Y-94949108D01*
X135731421Y-94982972D01*
X135964693Y-95019919D01*
X135964698Y-95019919D01*
X136200887Y-95019919D01*
X136330480Y-94999392D01*
X136434159Y-94982972D01*
X136658782Y-94909987D01*
X136869224Y-94802762D01*
X137060300Y-94663936D01*
X137227307Y-94496929D01*
X137366133Y-94305853D01*
X137473358Y-94095411D01*
X137546343Y-93870788D01*
X137566579Y-93743024D01*
X137583290Y-93637516D01*
X137583290Y-93401321D01*
X137546343Y-93168050D01*
X137473356Y-92943422D01*
X137366132Y-92732985D01*
X137227307Y-92541909D01*
X135714609Y-91029211D01*
X135681124Y-90967888D01*
X135678290Y-90941530D01*
X135678290Y-89627321D01*
X135697975Y-89560282D01*
X135703906Y-89551844D01*
X135707227Y-89547518D01*
X135827532Y-89339144D01*
X135919609Y-89116849D01*
X135981884Y-88884438D01*
X136013290Y-88645886D01*
X136013290Y-88405276D01*
X135981884Y-88166724D01*
X135919609Y-87934313D01*
X135827532Y-87712018D01*
X135827530Y-87712015D01*
X135827528Y-87712010D01*
X135707231Y-87503651D01*
X135707227Y-87503644D01*
X135560753Y-87312755D01*
X135560748Y-87312749D01*
X135390621Y-87142622D01*
X135390614Y-87142616D01*
X135199735Y-86996150D01*
X135199733Y-86996148D01*
X135199727Y-86996144D01*
X135199722Y-86996141D01*
X135199719Y-86996139D01*
X134991360Y-86875842D01*
X134991343Y-86875834D01*
X134769065Y-86783764D01*
X134536643Y-86721486D01*
X134298104Y-86690082D01*
X134298101Y-86690081D01*
X134298095Y-86690081D01*
X134057485Y-86690081D01*
X134057479Y-86690081D01*
X134057475Y-86690082D01*
X133818936Y-86721486D01*
X133586514Y-86783764D01*
X133364236Y-86875834D01*
X133364219Y-86875842D01*
X133155860Y-86996139D01*
X133155844Y-86996150D01*
X132964965Y-87142616D01*
X132964958Y-87142622D01*
X132794831Y-87312749D01*
X132794825Y-87312756D01*
X132648359Y-87503635D01*
X132648348Y-87503651D01*
X132528051Y-87712010D01*
X132528043Y-87712027D01*
X132435973Y-87934305D01*
X132373695Y-88166727D01*
X132342291Y-88405266D01*
X132342290Y-88405282D01*
X132342290Y-88645879D01*
X132342291Y-88645895D01*
X132373695Y-88884434D01*
X132435973Y-89116856D01*
X132528043Y-89339134D01*
X132528051Y-89339151D01*
X132648348Y-89547510D01*
X132648353Y-89547518D01*
X132651663Y-89551831D01*
X132676859Y-89616997D01*
X132677290Y-89627321D01*
X132677290Y-89989919D01*
X132657605Y-90056958D01*
X132604801Y-90102713D01*
X132553290Y-90113919D01*
X129452290Y-90113919D01*
X129385251Y-90094234D01*
X129339496Y-90041430D01*
X129328290Y-89989919D01*
X129328290Y-79842716D01*
X131647290Y-79842716D01*
X131647290Y-83998451D01*
X131647291Y-83998457D01*
X131653698Y-84058064D01*
X131703992Y-84192909D01*
X131703996Y-84192916D01*
X131790242Y-84308125D01*
X131790245Y-84308128D01*
X131905454Y-84394374D01*
X131905461Y-84394378D01*
X132040307Y-84444672D01*
X132040306Y-84444672D01*
X132047234Y-84445416D01*
X132099917Y-84451081D01*
X136255662Y-84451080D01*
X136315273Y-84444672D01*
X136450121Y-84394377D01*
X136565336Y-84308127D01*
X136651586Y-84192912D01*
X136701881Y-84058064D01*
X136708290Y-83998454D01*
X136708289Y-79842709D01*
X136701881Y-79783098D01*
X136651586Y-79648250D01*
X136651585Y-79648249D01*
X136651583Y-79648245D01*
X136565337Y-79533036D01*
X136565334Y-79533033D01*
X136450125Y-79446787D01*
X136450118Y-79446783D01*
X136315272Y-79396489D01*
X136315273Y-79396489D01*
X136255673Y-79390082D01*
X136255671Y-79390081D01*
X136255663Y-79390081D01*
X136255654Y-79390081D01*
X132099919Y-79390081D01*
X132099913Y-79390082D01*
X132040306Y-79396489D01*
X131905461Y-79446783D01*
X131905454Y-79446787D01*
X131790245Y-79533033D01*
X131790242Y-79533036D01*
X131703996Y-79648245D01*
X131703992Y-79648252D01*
X131653698Y-79783098D01*
X131647291Y-79842697D01*
X131647291Y-79842704D01*
X131647290Y-79842716D01*
X129328290Y-79842716D01*
X129328290Y-79412889D01*
X129347975Y-79345850D01*
X129364609Y-79325208D01*
X131837418Y-76852400D01*
X131898741Y-76818915D01*
X131925099Y-76816081D01*
X133076050Y-76816081D01*
X133143089Y-76835766D01*
X133151512Y-76841687D01*
X133155853Y-76845018D01*
X133155863Y-76845024D01*
X133155862Y-76845024D01*
X133364219Y-76965319D01*
X133364224Y-76965321D01*
X133364227Y-76965323D01*
X133364231Y-76965324D01*
X133364236Y-76965327D01*
X133586514Y-77057397D01*
X133586516Y-77057397D01*
X133586522Y-77057400D01*
X133818933Y-77119675D01*
X134057485Y-77151081D01*
X134057492Y-77151081D01*
X134298088Y-77151081D01*
X134298095Y-77151081D01*
X134536647Y-77119675D01*
X134769058Y-77057400D01*
X134991353Y-76965323D01*
X135199727Y-76845018D01*
X135390616Y-76698544D01*
X135560753Y-76528407D01*
X135707227Y-76337518D01*
X135827532Y-76129144D01*
X135919609Y-75906849D01*
X135981884Y-75674438D01*
X136013290Y-75435886D01*
X136013290Y-75195276D01*
X135981884Y-74956724D01*
X135919609Y-74724313D01*
X135906653Y-74693035D01*
X135827536Y-74502027D01*
X135827528Y-74502010D01*
X135707231Y-74293651D01*
X135707227Y-74293644D01*
X135665052Y-74238680D01*
X135560754Y-74102756D01*
X135560748Y-74102749D01*
X135390621Y-73932622D01*
X135390614Y-73932616D01*
X135199735Y-73786150D01*
X135199733Y-73786148D01*
X135199727Y-73786144D01*
X135199722Y-73786141D01*
X135199719Y-73786139D01*
X134991360Y-73665842D01*
X134991343Y-73665834D01*
X134769065Y-73573764D01*
X134536643Y-73511486D01*
X134298104Y-73480082D01*
X134298101Y-73480081D01*
X134298095Y-73480081D01*
X134057485Y-73480081D01*
X134057479Y-73480081D01*
X134057475Y-73480082D01*
X133818936Y-73511486D01*
X133586514Y-73573764D01*
X133364236Y-73665834D01*
X133364219Y-73665842D01*
X133155863Y-73786137D01*
X133155856Y-73786141D01*
X133155853Y-73786144D01*
X133151532Y-73789459D01*
X133086366Y-73814651D01*
X133076050Y-73815081D01*
X131134112Y-73815081D01*
X130900840Y-73852027D01*
X130676212Y-73925014D01*
X130465772Y-74032240D01*
X130274705Y-74171057D01*
X130274700Y-74171061D01*
X126683275Y-77762487D01*
X126683274Y-77762488D01*
X126544445Y-77953567D01*
X126502350Y-78036186D01*
X126502350Y-78036187D01*
X126437223Y-78164003D01*
X126364236Y-78388631D01*
X126327290Y-78621902D01*
X126327290Y-86640500D01*
X126307605Y-86707539D01*
X126254801Y-86753294D01*
X126203290Y-86764500D01*
X112749500Y-86764500D01*
X112682461Y-86744815D01*
X112636706Y-86692011D01*
X112625500Y-86640500D01*
X112625500Y-81370080D01*
X112645185Y-81303041D01*
X112697989Y-81257286D01*
X112749500Y-81246080D01*
X113172871Y-81246080D01*
X113172872Y-81246080D01*
X113232483Y-81239672D01*
X113367331Y-81189377D01*
X113482546Y-81103127D01*
X113568796Y-80987912D01*
X113619091Y-80853064D01*
X113625500Y-80793454D01*
X113625500Y-80370081D01*
X113645185Y-80303042D01*
X113697989Y-80257287D01*
X113749500Y-80246081D01*
X116000726Y-80246081D01*
X116067765Y-80265766D01*
X116113520Y-80318570D01*
X116117247Y-80327668D01*
X116210691Y-80584403D01*
X116210694Y-80584410D01*
X116210695Y-80584412D01*
X116210698Y-80584420D01*
X116387843Y-80964307D01*
X116387851Y-80964323D01*
X116401473Y-80987916D01*
X116597443Y-81327345D01*
X116597447Y-81327351D01*
X116597454Y-81327362D01*
X116837879Y-81670725D01*
X116943760Y-81796908D01*
X117107329Y-81991841D01*
X117403740Y-82288252D01*
X117537255Y-82400285D01*
X117724855Y-82557701D01*
X118068218Y-82798126D01*
X118068225Y-82798130D01*
X118068236Y-82798138D01*
X118431264Y-83007733D01*
X118431273Y-83007737D01*
X118811160Y-83184882D01*
X118811164Y-83184883D01*
X118811178Y-83184890D01*
X119205087Y-83328261D01*
X119205093Y-83328262D01*
X119205097Y-83328264D01*
X119315359Y-83357808D01*
X119609992Y-83436755D01*
X120022812Y-83509546D01*
X120440404Y-83546080D01*
X120440405Y-83546081D01*
X120440406Y-83546081D01*
X120859595Y-83546081D01*
X120859595Y-83546080D01*
X121277188Y-83509546D01*
X121690008Y-83436755D01*
X122094913Y-83328261D01*
X122488822Y-83184890D01*
X122868736Y-83007733D01*
X123231764Y-82798138D01*
X123575143Y-82557702D01*
X123896260Y-82288252D01*
X124192671Y-81991841D01*
X124462121Y-81670724D01*
X124702557Y-81327345D01*
X124912152Y-80964317D01*
X125089309Y-80584403D01*
X125232680Y-80190494D01*
X125341174Y-79785589D01*
X125413965Y-79372769D01*
X125450500Y-78955175D01*
X125450500Y-78535987D01*
X125413965Y-78118393D01*
X125341174Y-77705573D01*
X125232680Y-77300668D01*
X125089309Y-76906759D01*
X125060521Y-76845024D01*
X124912156Y-76526854D01*
X124912148Y-76526838D01*
X124832010Y-76388035D01*
X124702557Y-76163817D01*
X124702549Y-76163806D01*
X124702545Y-76163799D01*
X124462120Y-75820436D01*
X124192668Y-75499318D01*
X123896262Y-75202912D01*
X123575144Y-74933460D01*
X123231781Y-74693035D01*
X123231770Y-74693028D01*
X123231764Y-74693024D01*
X122900949Y-74502027D01*
X122868742Y-74483432D01*
X122868726Y-74483424D01*
X122488839Y-74306279D01*
X122488831Y-74306276D01*
X122488829Y-74306275D01*
X122488822Y-74306272D01*
X122094913Y-74162901D01*
X122094912Y-74162900D01*
X122094902Y-74162897D01*
X121690015Y-74054409D01*
X121690018Y-74054409D01*
X121690008Y-74054407D01*
X121690002Y-74054405D01*
X121689998Y-74054405D01*
X121277192Y-73981616D01*
X120859597Y-73945081D01*
X120859594Y-73945081D01*
X120440406Y-73945081D01*
X120440402Y-73945081D01*
X120022809Y-73981616D01*
X120022805Y-73981616D01*
X119610001Y-74054405D01*
X119609984Y-74054409D01*
X119205097Y-74162897D01*
X119008132Y-74234586D01*
X118811178Y-74306272D01*
X118811174Y-74306273D01*
X118811168Y-74306276D01*
X118811160Y-74306279D01*
X118431273Y-74483424D01*
X118431257Y-74483432D01*
X118068244Y-74693019D01*
X118068218Y-74693035D01*
X117724855Y-74933460D01*
X117403737Y-75202912D01*
X117107331Y-75499318D01*
X116837879Y-75820436D01*
X116597454Y-76163799D01*
X116597438Y-76163825D01*
X116387851Y-76526838D01*
X116387843Y-76526854D01*
X116210698Y-76906741D01*
X116210695Y-76906749D01*
X116210692Y-76906755D01*
X116210691Y-76906759D01*
X116155862Y-77057400D01*
X116117248Y-77163492D01*
X116075821Y-77219756D01*
X116010553Y-77244691D01*
X116000726Y-77245081D01*
X113749499Y-77245081D01*
X113682460Y-77225396D01*
X113636705Y-77172592D01*
X113625499Y-77121081D01*
X113625499Y-76697710D01*
X113625498Y-76697704D01*
X113625497Y-76697697D01*
X113619091Y-76638098D01*
X113577596Y-76526845D01*
X113568797Y-76503252D01*
X113568793Y-76503245D01*
X113482547Y-76388036D01*
X113482544Y-76388033D01*
X113367335Y-76301787D01*
X113367328Y-76301783D01*
X113232482Y-76251489D01*
X113232483Y-76251489D01*
X113172883Y-76245082D01*
X113172881Y-76245081D01*
X113172873Y-76245081D01*
X113172864Y-76245081D01*
X109077129Y-76245081D01*
X109077123Y-76245082D01*
X109017516Y-76251489D01*
X108882671Y-76301783D01*
X108882664Y-76301787D01*
X108767455Y-76388033D01*
X108767452Y-76388036D01*
X108681206Y-76503245D01*
X108681202Y-76503252D01*
X108630908Y-76638098D01*
X108624501Y-76697697D01*
X108624501Y-76697704D01*
X108624500Y-76697716D01*
X108624500Y-77121081D01*
X108604815Y-77188120D01*
X108552011Y-77233875D01*
X108500500Y-77245081D01*
X106249274Y-77245081D01*
X106182235Y-77225396D01*
X106136480Y-77172592D01*
X106132752Y-77163492D01*
X106128234Y-77151079D01*
X106039309Y-76906759D01*
X106010521Y-76845024D01*
X105862156Y-76526854D01*
X105862148Y-76526838D01*
X105782010Y-76388035D01*
X105652557Y-76163817D01*
X105652549Y-76163806D01*
X105652545Y-76163799D01*
X105412120Y-75820436D01*
X105142668Y-75499318D01*
X104846262Y-75202912D01*
X104525144Y-74933460D01*
X104181781Y-74693035D01*
X104181770Y-74693028D01*
X104181764Y-74693024D01*
X103850949Y-74502027D01*
X103818742Y-74483432D01*
X103818726Y-74483424D01*
X103438839Y-74306279D01*
X103438831Y-74306276D01*
X103438829Y-74306275D01*
X103438822Y-74306272D01*
X103044913Y-74162901D01*
X103044912Y-74162900D01*
X103044902Y-74162897D01*
X102640015Y-74054409D01*
X102640018Y-74054409D01*
X102640008Y-74054407D01*
X102640002Y-74054405D01*
X102639998Y-74054405D01*
X102227192Y-73981616D01*
X101809597Y-73945081D01*
X101809594Y-73945081D01*
X101390406Y-73945081D01*
X101390402Y-73945081D01*
X100972809Y-73981616D01*
X100972805Y-73981616D01*
X100560001Y-74054405D01*
X100559984Y-74054409D01*
X100155097Y-74162897D01*
X99958132Y-74234586D01*
X99761178Y-74306272D01*
X99761174Y-74306273D01*
X99761168Y-74306276D01*
X99761160Y-74306279D01*
X99381273Y-74483424D01*
X99381257Y-74483432D01*
X99018244Y-74693019D01*
X99018218Y-74693035D01*
X98674855Y-74933460D01*
X98353737Y-75202912D01*
X98057331Y-75499318D01*
X97787879Y-75820436D01*
X97547454Y-76163799D01*
X97547438Y-76163825D01*
X97337851Y-76526838D01*
X97337843Y-76526854D01*
X97160698Y-76906741D01*
X97160695Y-76906749D01*
X97160692Y-76906755D01*
X97160691Y-76906759D01*
X97139374Y-76965327D01*
X97017316Y-77300678D01*
X96908828Y-77705565D01*
X96908824Y-77705582D01*
X96836035Y-78118386D01*
X96836035Y-78118390D01*
X96799500Y-78535983D01*
X95556500Y-78535983D01*
X95556500Y-68624500D01*
X95576185Y-68557461D01*
X95628989Y-68511706D01*
X95680500Y-68500500D01*
X140091500Y-68500500D01*
X140158539Y-68520185D01*
G37*
%TD.AperFunction*%
M02*
