M48
; DRILL file {KiCad 9.0.0-1.fc40} date 2025-03-13T13:35:05-0700
; FORMAT={-:-/ absolute / metric / decimal}
; #@! TF.CreationDate,2025-03-13T13:35:05-07:00
; #@! TF.GenerationSoftware,Kicad,Pcbnew,9.0.0-1.fc40
; #@! TF.FileFunction,Plated,1,2,PTH
FMAT,2
METRIC
; #@! TA.AperFunction,Plated,PTH,ViaDrill
T1C0.500
; #@! TA.AperFunction,Plated,PTH,ComponentDrill
T2C0.600
; #@! TA.AperFunction,Plated,PTH,ComponentDrill
T3C1.190
; #@! TA.AperFunction,Plated,PTH,ComponentDrill
T4C1.780
; #@! TA.AperFunction,Plated,PTH,ComponentDrill
T5C4.300
%
G90
G05
T1
X109.982Y-97.79
X111.125Y-97.79
X112.268Y-97.79
X133.096Y-81.915
X134.178Y-81.921
X135.128Y-97.79
X135.382Y-81.915
X136.144Y-97.79
X137.16Y-97.79
T2
X98.375Y-78.746
X98.375Y-97.796
X99.32Y-76.465
X99.32Y-81.026
X99.32Y-95.515
X99.32Y-100.076
X101.6Y-75.521
X101.6Y-81.971
X101.6Y-94.571
X101.6Y-101.021
X103.88Y-76.465
X103.88Y-81.026
X103.88Y-95.515
X103.88Y-100.076
X104.825Y-78.746
X104.825Y-97.796
X117.425Y-78.746
X117.425Y-97.796
X118.37Y-76.465
X118.37Y-81.026
X118.37Y-95.515
X118.37Y-100.076
X120.65Y-75.521
X120.65Y-81.971
X120.65Y-94.571
X120.65Y-101.021
X122.93Y-76.465
X122.93Y-81.026
X122.93Y-95.515
X122.93Y-100.076
X123.875Y-78.746
X123.875Y-97.796
T3
X136.083Y-93.519
X136.083Y-102.049
T4
X134.178Y-75.316
X134.178Y-88.526
T5
X101.6Y-78.746
X101.6Y-97.796
X120.65Y-78.746
X120.65Y-97.796
M30
