%TF.GenerationSoftware,KiCad,Pcbnew,9.0.0-1.fc40*%
%TF.CreationDate,2025-03-13T13:35:05-07:00*%
%TF.ProjectId,HearingAidBattery-Holder,48656172-696e-4674-9169-644261747465,1.0*%
%TF.SameCoordinates,Original*%
%TF.FileFunction,Drillmap*%
%TF.FilePolarity,Positive*%
%FSLAX45Y45*%
G04 Gerber Fmt 4.5, Leading zero omitted, Abs format (unit mm)*
G04 Created by KiCad (PCBNEW 9.0.0-1.fc40) date 2025-03-13 13:35:05*
%MOMM*%
%LPD*%
G01*
G04 APERTURE LIST*
%ADD10C,0.050000*%
%ADD11C,0.200000*%
%ADD12C,0.100000*%
%ADD13C,0.119000*%
%ADD14C,0.178000*%
%ADD15C,0.430000*%
G04 APERTURE END LIST*
D10*
X9505600Y-6800000D02*
X14071600Y-6800000D01*
X14071600Y-10464000D01*
X9505600Y-10464000D01*
X9505600Y-6800000D01*
D11*
D12*
X10973200Y-9754000D02*
X11023200Y-9804000D01*
X11023200Y-9754000D02*
X10973200Y-9804000D01*
X11087500Y-9754000D02*
X11137500Y-9804000D01*
X11137500Y-9754000D02*
X11087500Y-9804000D01*
X11201800Y-9754000D02*
X11251800Y-9804000D01*
X11251800Y-9754000D02*
X11201800Y-9804000D01*
X13284600Y-8166500D02*
X13334600Y-8216500D01*
X13334600Y-8166500D02*
X13284600Y-8216500D01*
X13392779Y-8167058D02*
X13442779Y-8217058D01*
X13442779Y-8167058D02*
X13392779Y-8217058D01*
X13487800Y-9754000D02*
X13537800Y-9804000D01*
X13537800Y-9754000D02*
X13487800Y-9804000D01*
X13513200Y-8166500D02*
X13563200Y-8216500D01*
X13563200Y-8166500D02*
X13513200Y-8216500D01*
X13589400Y-9754000D02*
X13639400Y-9804000D01*
X13639400Y-9754000D02*
X13589400Y-9804000D01*
X13691000Y-9754000D02*
X13741000Y-9804000D01*
X13741000Y-9754000D02*
X13691000Y-9804000D01*
X9867500Y-7874558D02*
G75*
G02*
X9807500Y-7874558I-30000J0D01*
G01*
X9807500Y-7874558D02*
G75*
G02*
X9867500Y-7874558I30000J0D01*
G01*
X9867500Y-9779558D02*
G75*
G02*
X9807500Y-9779558I-30000J0D01*
G01*
X9807500Y-9779558D02*
G75*
G02*
X9867500Y-9779558I30000J0D01*
G01*
X9961958Y-7646516D02*
G75*
G02*
X9901958Y-7646516I-30000J0D01*
G01*
X9901958Y-7646516D02*
G75*
G02*
X9961958Y-7646516I30000J0D01*
G01*
X9961958Y-8102600D02*
G75*
G02*
X9901958Y-8102600I-30000J0D01*
G01*
X9901958Y-8102600D02*
G75*
G02*
X9961958Y-8102600I30000J0D01*
G01*
X9961958Y-9551516D02*
G75*
G02*
X9901958Y-9551516I-30000J0D01*
G01*
X9901958Y-9551516D02*
G75*
G02*
X9961958Y-9551516I30000J0D01*
G01*
X9961958Y-10007600D02*
G75*
G02*
X9901958Y-10007600I-30000J0D01*
G01*
X9901958Y-10007600D02*
G75*
G02*
X9961958Y-10007600I30000J0D01*
G01*
X10190000Y-7552058D02*
G75*
G02*
X10130000Y-7552058I-30000J0D01*
G01*
X10130000Y-7552058D02*
G75*
G02*
X10190000Y-7552058I30000J0D01*
G01*
X10190000Y-8197058D02*
G75*
G02*
X10130000Y-8197058I-30000J0D01*
G01*
X10130000Y-8197058D02*
G75*
G02*
X10190000Y-8197058I30000J0D01*
G01*
X10190000Y-9457058D02*
G75*
G02*
X10130000Y-9457058I-30000J0D01*
G01*
X10130000Y-9457058D02*
G75*
G02*
X10190000Y-9457058I30000J0D01*
G01*
X10190000Y-10102058D02*
G75*
G02*
X10130000Y-10102058I-30000J0D01*
G01*
X10130000Y-10102058D02*
G75*
G02*
X10190000Y-10102058I30000J0D01*
G01*
X10418042Y-7646516D02*
G75*
G02*
X10358042Y-7646516I-30000J0D01*
G01*
X10358042Y-7646516D02*
G75*
G02*
X10418042Y-7646516I30000J0D01*
G01*
X10418042Y-8102600D02*
G75*
G02*
X10358042Y-8102600I-30000J0D01*
G01*
X10358042Y-8102600D02*
G75*
G02*
X10418042Y-8102600I30000J0D01*
G01*
X10418042Y-9551516D02*
G75*
G02*
X10358042Y-9551516I-30000J0D01*
G01*
X10358042Y-9551516D02*
G75*
G02*
X10418042Y-9551516I30000J0D01*
G01*
X10418042Y-10007600D02*
G75*
G02*
X10358042Y-10007600I-30000J0D01*
G01*
X10358042Y-10007600D02*
G75*
G02*
X10418042Y-10007600I30000J0D01*
G01*
X10512500Y-7874558D02*
G75*
G02*
X10452500Y-7874558I-30000J0D01*
G01*
X10452500Y-7874558D02*
G75*
G02*
X10512500Y-7874558I30000J0D01*
G01*
X10512500Y-9779558D02*
G75*
G02*
X10452500Y-9779558I-30000J0D01*
G01*
X10452500Y-9779558D02*
G75*
G02*
X10512500Y-9779558I30000J0D01*
G01*
X11772500Y-7874558D02*
G75*
G02*
X11712500Y-7874558I-30000J0D01*
G01*
X11712500Y-7874558D02*
G75*
G02*
X11772500Y-7874558I30000J0D01*
G01*
X11772500Y-9779558D02*
G75*
G02*
X11712500Y-9779558I-30000J0D01*
G01*
X11712500Y-9779558D02*
G75*
G02*
X11772500Y-9779558I30000J0D01*
G01*
X11866958Y-7646516D02*
G75*
G02*
X11806958Y-7646516I-30000J0D01*
G01*
X11806958Y-7646516D02*
G75*
G02*
X11866958Y-7646516I30000J0D01*
G01*
X11866958Y-8102600D02*
G75*
G02*
X11806958Y-8102600I-30000J0D01*
G01*
X11806958Y-8102600D02*
G75*
G02*
X11866958Y-8102600I30000J0D01*
G01*
X11866958Y-9551516D02*
G75*
G02*
X11806958Y-9551516I-30000J0D01*
G01*
X11806958Y-9551516D02*
G75*
G02*
X11866958Y-9551516I30000J0D01*
G01*
X11866958Y-10007600D02*
G75*
G02*
X11806958Y-10007600I-30000J0D01*
G01*
X11806958Y-10007600D02*
G75*
G02*
X11866958Y-10007600I30000J0D01*
G01*
X12095000Y-7552058D02*
G75*
G02*
X12035000Y-7552058I-30000J0D01*
G01*
X12035000Y-7552058D02*
G75*
G02*
X12095000Y-7552058I30000J0D01*
G01*
X12095000Y-8197058D02*
G75*
G02*
X12035000Y-8197058I-30000J0D01*
G01*
X12035000Y-8197058D02*
G75*
G02*
X12095000Y-8197058I30000J0D01*
G01*
X12095000Y-9457058D02*
G75*
G02*
X12035000Y-9457058I-30000J0D01*
G01*
X12035000Y-9457058D02*
G75*
G02*
X12095000Y-9457058I30000J0D01*
G01*
X12095000Y-10102058D02*
G75*
G02*
X12035000Y-10102058I-30000J0D01*
G01*
X12035000Y-10102058D02*
G75*
G02*
X12095000Y-10102058I30000J0D01*
G01*
X12323042Y-7646516D02*
G75*
G02*
X12263042Y-7646516I-30000J0D01*
G01*
X12263042Y-7646516D02*
G75*
G02*
X12323042Y-7646516I30000J0D01*
G01*
X12323042Y-8102600D02*
G75*
G02*
X12263042Y-8102600I-30000J0D01*
G01*
X12263042Y-8102600D02*
G75*
G02*
X12323042Y-8102600I30000J0D01*
G01*
X12323042Y-9551516D02*
G75*
G02*
X12263042Y-9551516I-30000J0D01*
G01*
X12263042Y-9551516D02*
G75*
G02*
X12323042Y-9551516I30000J0D01*
G01*
X12323042Y-10007600D02*
G75*
G02*
X12263042Y-10007600I-30000J0D01*
G01*
X12263042Y-10007600D02*
G75*
G02*
X12323042Y-10007600I30000J0D01*
G01*
X12417500Y-7874558D02*
G75*
G02*
X12357500Y-7874558I-30000J0D01*
G01*
X12357500Y-7874558D02*
G75*
G02*
X12417500Y-7874558I30000J0D01*
G01*
X12417500Y-9779558D02*
G75*
G02*
X12357500Y-9779558I-30000J0D01*
G01*
X12357500Y-9779558D02*
G75*
G02*
X12417500Y-9779558I30000J0D01*
G01*
D13*
X13608279Y-9292442D02*
X13608279Y-9411442D01*
X13548779Y-9351942D02*
X13667779Y-9351942D01*
X13608279Y-10145442D02*
X13608279Y-10264442D01*
X13548779Y-10204942D02*
X13667779Y-10204942D01*
D14*
X13480712Y-7594491D02*
X13480712Y-7468625D01*
X13354846Y-7468625D01*
X13354846Y-7594491D01*
X13480712Y-7594491D01*
X13480712Y-8915491D02*
X13480712Y-8789625D01*
X13354846Y-8789625D01*
X13354846Y-8915491D01*
X13480712Y-8915491D01*
D15*
X10160000Y-8089558D02*
X10375000Y-7874558D01*
X10160000Y-7659558D01*
X9945000Y-7874558D01*
X10160000Y-8089558D01*
X10160000Y-9994558D02*
X10375000Y-9779558D01*
X10160000Y-9564558D01*
X9945000Y-9779558D01*
X10160000Y-9994558D01*
X12065000Y-8089558D02*
X12280000Y-7874558D01*
X12065000Y-7659558D01*
X11850000Y-7874558D01*
X12065000Y-8089558D01*
X12065000Y-9994558D02*
X12280000Y-9779558D01*
X12065000Y-9564558D01*
X11850000Y-9779558D01*
X12065000Y-9994558D01*
D11*
X9763877Y-10777984D02*
X9763877Y-10577984D01*
X9763877Y-10577984D02*
X9811496Y-10577984D01*
X9811496Y-10577984D02*
X9840067Y-10587508D01*
X9840067Y-10587508D02*
X9859115Y-10606555D01*
X9859115Y-10606555D02*
X9868639Y-10625603D01*
X9868639Y-10625603D02*
X9878163Y-10663698D01*
X9878163Y-10663698D02*
X9878163Y-10692270D01*
X9878163Y-10692270D02*
X9868639Y-10730365D01*
X9868639Y-10730365D02*
X9859115Y-10749412D01*
X9859115Y-10749412D02*
X9840067Y-10768460D01*
X9840067Y-10768460D02*
X9811496Y-10777984D01*
X9811496Y-10777984D02*
X9763877Y-10777984D01*
X9963877Y-10777984D02*
X9963877Y-10644650D01*
X9963877Y-10682746D02*
X9973401Y-10663698D01*
X9973401Y-10663698D02*
X9982924Y-10654174D01*
X9982924Y-10654174D02*
X10001972Y-10644650D01*
X10001972Y-10644650D02*
X10021020Y-10644650D01*
X10087686Y-10777984D02*
X10087686Y-10644650D01*
X10087686Y-10577984D02*
X10078163Y-10587508D01*
X10078163Y-10587508D02*
X10087686Y-10597031D01*
X10087686Y-10597031D02*
X10097210Y-10587508D01*
X10097210Y-10587508D02*
X10087686Y-10577984D01*
X10087686Y-10577984D02*
X10087686Y-10597031D01*
X10211496Y-10777984D02*
X10192448Y-10768460D01*
X10192448Y-10768460D02*
X10182924Y-10749412D01*
X10182924Y-10749412D02*
X10182924Y-10577984D01*
X10316258Y-10777984D02*
X10297210Y-10768460D01*
X10297210Y-10768460D02*
X10287686Y-10749412D01*
X10287686Y-10749412D02*
X10287686Y-10577984D01*
X10544829Y-10777984D02*
X10544829Y-10577984D01*
X10544829Y-10577984D02*
X10611496Y-10720841D01*
X10611496Y-10720841D02*
X10678163Y-10577984D01*
X10678163Y-10577984D02*
X10678163Y-10777984D01*
X10859115Y-10777984D02*
X10859115Y-10673222D01*
X10859115Y-10673222D02*
X10849591Y-10654174D01*
X10849591Y-10654174D02*
X10830544Y-10644650D01*
X10830544Y-10644650D02*
X10792448Y-10644650D01*
X10792448Y-10644650D02*
X10773401Y-10654174D01*
X10859115Y-10768460D02*
X10840067Y-10777984D01*
X10840067Y-10777984D02*
X10792448Y-10777984D01*
X10792448Y-10777984D02*
X10773401Y-10768460D01*
X10773401Y-10768460D02*
X10763877Y-10749412D01*
X10763877Y-10749412D02*
X10763877Y-10730365D01*
X10763877Y-10730365D02*
X10773401Y-10711317D01*
X10773401Y-10711317D02*
X10792448Y-10701793D01*
X10792448Y-10701793D02*
X10840067Y-10701793D01*
X10840067Y-10701793D02*
X10859115Y-10692270D01*
X10954353Y-10644650D02*
X10954353Y-10844650D01*
X10954353Y-10654174D02*
X10973401Y-10644650D01*
X10973401Y-10644650D02*
X11011496Y-10644650D01*
X11011496Y-10644650D02*
X11030544Y-10654174D01*
X11030544Y-10654174D02*
X11040067Y-10663698D01*
X11040067Y-10663698D02*
X11049591Y-10682746D01*
X11049591Y-10682746D02*
X11049591Y-10739889D01*
X11049591Y-10739889D02*
X11040067Y-10758936D01*
X11040067Y-10758936D02*
X11030544Y-10768460D01*
X11030544Y-10768460D02*
X11011496Y-10777984D01*
X11011496Y-10777984D02*
X10973401Y-10777984D01*
X10973401Y-10777984D02*
X10954353Y-10768460D01*
X11135305Y-10758936D02*
X11144829Y-10768460D01*
X11144829Y-10768460D02*
X11135305Y-10777984D01*
X11135305Y-10777984D02*
X11125782Y-10768460D01*
X11125782Y-10768460D02*
X11135305Y-10758936D01*
X11135305Y-10758936D02*
X11135305Y-10777984D01*
X11135305Y-10654174D02*
X11144829Y-10663698D01*
X11144829Y-10663698D02*
X11135305Y-10673222D01*
X11135305Y-10673222D02*
X11125782Y-10663698D01*
X11125782Y-10663698D02*
X11135305Y-10654174D01*
X11135305Y-10654174D02*
X11135305Y-10673222D01*
D12*
X9453100Y-11081500D02*
X9503100Y-11131500D01*
X9503100Y-11081500D02*
X9453100Y-11131500D01*
D11*
X9801972Y-10997984D02*
X9821020Y-10997984D01*
X9821020Y-10997984D02*
X9840067Y-11007508D01*
X9840067Y-11007508D02*
X9849591Y-11017031D01*
X9849591Y-11017031D02*
X9859115Y-11036079D01*
X9859115Y-11036079D02*
X9868639Y-11074174D01*
X9868639Y-11074174D02*
X9868639Y-11121793D01*
X9868639Y-11121793D02*
X9859115Y-11159889D01*
X9859115Y-11159889D02*
X9849591Y-11178936D01*
X9849591Y-11178936D02*
X9840067Y-11188460D01*
X9840067Y-11188460D02*
X9821020Y-11197984D01*
X9821020Y-11197984D02*
X9801972Y-11197984D01*
X9801972Y-11197984D02*
X9782924Y-11188460D01*
X9782924Y-11188460D02*
X9773401Y-11178936D01*
X9773401Y-11178936D02*
X9763877Y-11159889D01*
X9763877Y-11159889D02*
X9754353Y-11121793D01*
X9754353Y-11121793D02*
X9754353Y-11074174D01*
X9754353Y-11074174D02*
X9763877Y-11036079D01*
X9763877Y-11036079D02*
X9773401Y-11017031D01*
X9773401Y-11017031D02*
X9782924Y-11007508D01*
X9782924Y-11007508D02*
X9801972Y-10997984D01*
X9954353Y-11178936D02*
X9963877Y-11188460D01*
X9963877Y-11188460D02*
X9954353Y-11197984D01*
X9954353Y-11197984D02*
X9944829Y-11188460D01*
X9944829Y-11188460D02*
X9954353Y-11178936D01*
X9954353Y-11178936D02*
X9954353Y-11197984D01*
X10144829Y-10997984D02*
X10049591Y-10997984D01*
X10049591Y-10997984D02*
X10040067Y-11093222D01*
X10040067Y-11093222D02*
X10049591Y-11083698D01*
X10049591Y-11083698D02*
X10068639Y-11074174D01*
X10068639Y-11074174D02*
X10116258Y-11074174D01*
X10116258Y-11074174D02*
X10135305Y-11083698D01*
X10135305Y-11083698D02*
X10144829Y-11093222D01*
X10144829Y-11093222D02*
X10154353Y-11112270D01*
X10154353Y-11112270D02*
X10154353Y-11159889D01*
X10154353Y-11159889D02*
X10144829Y-11178936D01*
X10144829Y-11178936D02*
X10135305Y-11188460D01*
X10135305Y-11188460D02*
X10116258Y-11197984D01*
X10116258Y-11197984D02*
X10068639Y-11197984D01*
X10068639Y-11197984D02*
X10049591Y-11188460D01*
X10049591Y-11188460D02*
X10040067Y-11178936D01*
X10278163Y-10997984D02*
X10297210Y-10997984D01*
X10297210Y-10997984D02*
X10316258Y-11007508D01*
X10316258Y-11007508D02*
X10325782Y-11017031D01*
X10325782Y-11017031D02*
X10335305Y-11036079D01*
X10335305Y-11036079D02*
X10344829Y-11074174D01*
X10344829Y-11074174D02*
X10344829Y-11121793D01*
X10344829Y-11121793D02*
X10335305Y-11159889D01*
X10335305Y-11159889D02*
X10325782Y-11178936D01*
X10325782Y-11178936D02*
X10316258Y-11188460D01*
X10316258Y-11188460D02*
X10297210Y-11197984D01*
X10297210Y-11197984D02*
X10278163Y-11197984D01*
X10278163Y-11197984D02*
X10259115Y-11188460D01*
X10259115Y-11188460D02*
X10249591Y-11178936D01*
X10249591Y-11178936D02*
X10240067Y-11159889D01*
X10240067Y-11159889D02*
X10230544Y-11121793D01*
X10230544Y-11121793D02*
X10230544Y-11074174D01*
X10230544Y-11074174D02*
X10240067Y-11036079D01*
X10240067Y-11036079D02*
X10249591Y-11017031D01*
X10249591Y-11017031D02*
X10259115Y-11007508D01*
X10259115Y-11007508D02*
X10278163Y-10997984D01*
X10468639Y-10997984D02*
X10487686Y-10997984D01*
X10487686Y-10997984D02*
X10506734Y-11007508D01*
X10506734Y-11007508D02*
X10516258Y-11017031D01*
X10516258Y-11017031D02*
X10525782Y-11036079D01*
X10525782Y-11036079D02*
X10535305Y-11074174D01*
X10535305Y-11074174D02*
X10535305Y-11121793D01*
X10535305Y-11121793D02*
X10525782Y-11159889D01*
X10525782Y-11159889D02*
X10516258Y-11178936D01*
X10516258Y-11178936D02*
X10506734Y-11188460D01*
X10506734Y-11188460D02*
X10487686Y-11197984D01*
X10487686Y-11197984D02*
X10468639Y-11197984D01*
X10468639Y-11197984D02*
X10449591Y-11188460D01*
X10449591Y-11188460D02*
X10440067Y-11178936D01*
X10440067Y-11178936D02*
X10430544Y-11159889D01*
X10430544Y-11159889D02*
X10421020Y-11121793D01*
X10421020Y-11121793D02*
X10421020Y-11074174D01*
X10421020Y-11074174D02*
X10430544Y-11036079D01*
X10430544Y-11036079D02*
X10440067Y-11017031D01*
X10440067Y-11017031D02*
X10449591Y-11007508D01*
X10449591Y-11007508D02*
X10468639Y-10997984D01*
X10621020Y-11197984D02*
X10621020Y-11064650D01*
X10621020Y-11083698D02*
X10630544Y-11074174D01*
X10630544Y-11074174D02*
X10649591Y-11064650D01*
X10649591Y-11064650D02*
X10678163Y-11064650D01*
X10678163Y-11064650D02*
X10697210Y-11074174D01*
X10697210Y-11074174D02*
X10706734Y-11093222D01*
X10706734Y-11093222D02*
X10706734Y-11197984D01*
X10706734Y-11093222D02*
X10716258Y-11074174D01*
X10716258Y-11074174D02*
X10735305Y-11064650D01*
X10735305Y-11064650D02*
X10763877Y-11064650D01*
X10763877Y-11064650D02*
X10782925Y-11074174D01*
X10782925Y-11074174D02*
X10792448Y-11093222D01*
X10792448Y-11093222D02*
X10792448Y-11197984D01*
X10887686Y-11197984D02*
X10887686Y-11064650D01*
X10887686Y-11083698D02*
X10897210Y-11074174D01*
X10897210Y-11074174D02*
X10916258Y-11064650D01*
X10916258Y-11064650D02*
X10944829Y-11064650D01*
X10944829Y-11064650D02*
X10963877Y-11074174D01*
X10963877Y-11074174D02*
X10973401Y-11093222D01*
X10973401Y-11093222D02*
X10973401Y-11197984D01*
X10973401Y-11093222D02*
X10982925Y-11074174D01*
X10982925Y-11074174D02*
X11001972Y-11064650D01*
X11001972Y-11064650D02*
X11030544Y-11064650D01*
X11030544Y-11064650D02*
X11049591Y-11074174D01*
X11049591Y-11074174D02*
X11059115Y-11093222D01*
X11059115Y-11093222D02*
X11059115Y-11197984D01*
X11449591Y-10988460D02*
X11278163Y-11245603D01*
X11706734Y-10997984D02*
X11725782Y-10997984D01*
X11725782Y-10997984D02*
X11744829Y-11007508D01*
X11744829Y-11007508D02*
X11754353Y-11017031D01*
X11754353Y-11017031D02*
X11763877Y-11036079D01*
X11763877Y-11036079D02*
X11773401Y-11074174D01*
X11773401Y-11074174D02*
X11773401Y-11121793D01*
X11773401Y-11121793D02*
X11763877Y-11159889D01*
X11763877Y-11159889D02*
X11754353Y-11178936D01*
X11754353Y-11178936D02*
X11744829Y-11188460D01*
X11744829Y-11188460D02*
X11725782Y-11197984D01*
X11725782Y-11197984D02*
X11706734Y-11197984D01*
X11706734Y-11197984D02*
X11687686Y-11188460D01*
X11687686Y-11188460D02*
X11678163Y-11178936D01*
X11678163Y-11178936D02*
X11668639Y-11159889D01*
X11668639Y-11159889D02*
X11659115Y-11121793D01*
X11659115Y-11121793D02*
X11659115Y-11074174D01*
X11659115Y-11074174D02*
X11668639Y-11036079D01*
X11668639Y-11036079D02*
X11678163Y-11017031D01*
X11678163Y-11017031D02*
X11687686Y-11007508D01*
X11687686Y-11007508D02*
X11706734Y-10997984D01*
X11859115Y-11178936D02*
X11868639Y-11188460D01*
X11868639Y-11188460D02*
X11859115Y-11197984D01*
X11859115Y-11197984D02*
X11849591Y-11188460D01*
X11849591Y-11188460D02*
X11859115Y-11178936D01*
X11859115Y-11178936D02*
X11859115Y-11197984D01*
X11992448Y-10997984D02*
X12011496Y-10997984D01*
X12011496Y-10997984D02*
X12030544Y-11007508D01*
X12030544Y-11007508D02*
X12040067Y-11017031D01*
X12040067Y-11017031D02*
X12049591Y-11036079D01*
X12049591Y-11036079D02*
X12059115Y-11074174D01*
X12059115Y-11074174D02*
X12059115Y-11121793D01*
X12059115Y-11121793D02*
X12049591Y-11159889D01*
X12049591Y-11159889D02*
X12040067Y-11178936D01*
X12040067Y-11178936D02*
X12030544Y-11188460D01*
X12030544Y-11188460D02*
X12011496Y-11197984D01*
X12011496Y-11197984D02*
X11992448Y-11197984D01*
X11992448Y-11197984D02*
X11973401Y-11188460D01*
X11973401Y-11188460D02*
X11963877Y-11178936D01*
X11963877Y-11178936D02*
X11954353Y-11159889D01*
X11954353Y-11159889D02*
X11944829Y-11121793D01*
X11944829Y-11121793D02*
X11944829Y-11074174D01*
X11944829Y-11074174D02*
X11954353Y-11036079D01*
X11954353Y-11036079D02*
X11963877Y-11017031D01*
X11963877Y-11017031D02*
X11973401Y-11007508D01*
X11973401Y-11007508D02*
X11992448Y-10997984D01*
X12249591Y-11197984D02*
X12135306Y-11197984D01*
X12192448Y-11197984D02*
X12192448Y-10997984D01*
X12192448Y-10997984D02*
X12173401Y-11026555D01*
X12173401Y-11026555D02*
X12154353Y-11045603D01*
X12154353Y-11045603D02*
X12135306Y-11055127D01*
X12344829Y-11197984D02*
X12382925Y-11197984D01*
X12382925Y-11197984D02*
X12401972Y-11188460D01*
X12401972Y-11188460D02*
X12411496Y-11178936D01*
X12411496Y-11178936D02*
X12430544Y-11150365D01*
X12430544Y-11150365D02*
X12440067Y-11112270D01*
X12440067Y-11112270D02*
X12440067Y-11036079D01*
X12440067Y-11036079D02*
X12430544Y-11017031D01*
X12430544Y-11017031D02*
X12421020Y-11007508D01*
X12421020Y-11007508D02*
X12401972Y-10997984D01*
X12401972Y-10997984D02*
X12363877Y-10997984D01*
X12363877Y-10997984D02*
X12344829Y-11007508D01*
X12344829Y-11007508D02*
X12335306Y-11017031D01*
X12335306Y-11017031D02*
X12325782Y-11036079D01*
X12325782Y-11036079D02*
X12325782Y-11083698D01*
X12325782Y-11083698D02*
X12335306Y-11102746D01*
X12335306Y-11102746D02*
X12344829Y-11112270D01*
X12344829Y-11112270D02*
X12363877Y-11121793D01*
X12363877Y-11121793D02*
X12401972Y-11121793D01*
X12401972Y-11121793D02*
X12421020Y-11112270D01*
X12421020Y-11112270D02*
X12430544Y-11102746D01*
X12430544Y-11102746D02*
X12440067Y-11083698D01*
X12506734Y-10997984D02*
X12640067Y-10997984D01*
X12640067Y-10997984D02*
X12554353Y-11197984D01*
X12706734Y-10997984D02*
X12706734Y-11036079D01*
X12782925Y-10997984D02*
X12782925Y-11036079D01*
X13078163Y-11274174D02*
X13068639Y-11264650D01*
X13068639Y-11264650D02*
X13049591Y-11236079D01*
X13049591Y-11236079D02*
X13040068Y-11217031D01*
X13040068Y-11217031D02*
X13030544Y-11188460D01*
X13030544Y-11188460D02*
X13021020Y-11140841D01*
X13021020Y-11140841D02*
X13021020Y-11102746D01*
X13021020Y-11102746D02*
X13030544Y-11055127D01*
X13030544Y-11055127D02*
X13040068Y-11026555D01*
X13040068Y-11026555D02*
X13049591Y-11007508D01*
X13049591Y-11007508D02*
X13068639Y-10978936D01*
X13068639Y-10978936D02*
X13078163Y-10969412D01*
X13163877Y-11197984D02*
X13201972Y-11197984D01*
X13201972Y-11197984D02*
X13221020Y-11188460D01*
X13221020Y-11188460D02*
X13230544Y-11178936D01*
X13230544Y-11178936D02*
X13249591Y-11150365D01*
X13249591Y-11150365D02*
X13259115Y-11112270D01*
X13259115Y-11112270D02*
X13259115Y-11036079D01*
X13259115Y-11036079D02*
X13249591Y-11017031D01*
X13249591Y-11017031D02*
X13240068Y-11007508D01*
X13240068Y-11007508D02*
X13221020Y-10997984D01*
X13221020Y-10997984D02*
X13182925Y-10997984D01*
X13182925Y-10997984D02*
X13163877Y-11007508D01*
X13163877Y-11007508D02*
X13154353Y-11017031D01*
X13154353Y-11017031D02*
X13144829Y-11036079D01*
X13144829Y-11036079D02*
X13144829Y-11083698D01*
X13144829Y-11083698D02*
X13154353Y-11102746D01*
X13154353Y-11102746D02*
X13163877Y-11112270D01*
X13163877Y-11112270D02*
X13182925Y-11121793D01*
X13182925Y-11121793D02*
X13221020Y-11121793D01*
X13221020Y-11121793D02*
X13240068Y-11112270D01*
X13240068Y-11112270D02*
X13249591Y-11102746D01*
X13249591Y-11102746D02*
X13259115Y-11083698D01*
X13497210Y-11197984D02*
X13497210Y-10997984D01*
X13582925Y-11197984D02*
X13582925Y-11093222D01*
X13582925Y-11093222D02*
X13573401Y-11074174D01*
X13573401Y-11074174D02*
X13554353Y-11064650D01*
X13554353Y-11064650D02*
X13525782Y-11064650D01*
X13525782Y-11064650D02*
X13506734Y-11074174D01*
X13506734Y-11074174D02*
X13497210Y-11083698D01*
X13706734Y-11197984D02*
X13687687Y-11188460D01*
X13687687Y-11188460D02*
X13678163Y-11178936D01*
X13678163Y-11178936D02*
X13668639Y-11159889D01*
X13668639Y-11159889D02*
X13668639Y-11102746D01*
X13668639Y-11102746D02*
X13678163Y-11083698D01*
X13678163Y-11083698D02*
X13687687Y-11074174D01*
X13687687Y-11074174D02*
X13706734Y-11064650D01*
X13706734Y-11064650D02*
X13735306Y-11064650D01*
X13735306Y-11064650D02*
X13754353Y-11074174D01*
X13754353Y-11074174D02*
X13763877Y-11083698D01*
X13763877Y-11083698D02*
X13773401Y-11102746D01*
X13773401Y-11102746D02*
X13773401Y-11159889D01*
X13773401Y-11159889D02*
X13763877Y-11178936D01*
X13763877Y-11178936D02*
X13754353Y-11188460D01*
X13754353Y-11188460D02*
X13735306Y-11197984D01*
X13735306Y-11197984D02*
X13706734Y-11197984D01*
X13887687Y-11197984D02*
X13868639Y-11188460D01*
X13868639Y-11188460D02*
X13859115Y-11169412D01*
X13859115Y-11169412D02*
X13859115Y-10997984D01*
X14040068Y-11188460D02*
X14021020Y-11197984D01*
X14021020Y-11197984D02*
X13982925Y-11197984D01*
X13982925Y-11197984D02*
X13963877Y-11188460D01*
X13963877Y-11188460D02*
X13954353Y-11169412D01*
X13954353Y-11169412D02*
X13954353Y-11093222D01*
X13954353Y-11093222D02*
X13963877Y-11074174D01*
X13963877Y-11074174D02*
X13982925Y-11064650D01*
X13982925Y-11064650D02*
X14021020Y-11064650D01*
X14021020Y-11064650D02*
X14040068Y-11074174D01*
X14040068Y-11074174D02*
X14049591Y-11093222D01*
X14049591Y-11093222D02*
X14049591Y-11112270D01*
X14049591Y-11112270D02*
X13954353Y-11131317D01*
X14125782Y-11188460D02*
X14144830Y-11197984D01*
X14144830Y-11197984D02*
X14182925Y-11197984D01*
X14182925Y-11197984D02*
X14201972Y-11188460D01*
X14201972Y-11188460D02*
X14211496Y-11169412D01*
X14211496Y-11169412D02*
X14211496Y-11159889D01*
X14211496Y-11159889D02*
X14201972Y-11140841D01*
X14201972Y-11140841D02*
X14182925Y-11131317D01*
X14182925Y-11131317D02*
X14154353Y-11131317D01*
X14154353Y-11131317D02*
X14135306Y-11121793D01*
X14135306Y-11121793D02*
X14125782Y-11102746D01*
X14125782Y-11102746D02*
X14125782Y-11093222D01*
X14125782Y-11093222D02*
X14135306Y-11074174D01*
X14135306Y-11074174D02*
X14154353Y-11064650D01*
X14154353Y-11064650D02*
X14182925Y-11064650D01*
X14182925Y-11064650D02*
X14201972Y-11074174D01*
X14278163Y-11274174D02*
X14287687Y-11264650D01*
X14287687Y-11264650D02*
X14306734Y-11236079D01*
X14306734Y-11236079D02*
X14316258Y-11217031D01*
X14316258Y-11217031D02*
X14325782Y-11188460D01*
X14325782Y-11188460D02*
X14335306Y-11140841D01*
X14335306Y-11140841D02*
X14335306Y-11102746D01*
X14335306Y-11102746D02*
X14325782Y-11055127D01*
X14325782Y-11055127D02*
X14316258Y-11026555D01*
X14316258Y-11026555D02*
X14306734Y-11007508D01*
X14306734Y-11007508D02*
X14287687Y-10978936D01*
X14287687Y-10978936D02*
X14278163Y-10969412D01*
D12*
X9503100Y-11370500D02*
G75*
G02*
X9443100Y-11370500I-30000J0D01*
G01*
X9443100Y-11370500D02*
G75*
G02*
X9503100Y-11370500I30000J0D01*
G01*
D11*
X9801972Y-11261984D02*
X9821020Y-11261984D01*
X9821020Y-11261984D02*
X9840067Y-11271508D01*
X9840067Y-11271508D02*
X9849591Y-11281031D01*
X9849591Y-11281031D02*
X9859115Y-11300079D01*
X9859115Y-11300079D02*
X9868639Y-11338174D01*
X9868639Y-11338174D02*
X9868639Y-11385793D01*
X9868639Y-11385793D02*
X9859115Y-11423888D01*
X9859115Y-11423888D02*
X9849591Y-11442936D01*
X9849591Y-11442936D02*
X9840067Y-11452460D01*
X9840067Y-11452460D02*
X9821020Y-11461984D01*
X9821020Y-11461984D02*
X9801972Y-11461984D01*
X9801972Y-11461984D02*
X9782924Y-11452460D01*
X9782924Y-11452460D02*
X9773401Y-11442936D01*
X9773401Y-11442936D02*
X9763877Y-11423888D01*
X9763877Y-11423888D02*
X9754353Y-11385793D01*
X9754353Y-11385793D02*
X9754353Y-11338174D01*
X9754353Y-11338174D02*
X9763877Y-11300079D01*
X9763877Y-11300079D02*
X9773401Y-11281031D01*
X9773401Y-11281031D02*
X9782924Y-11271508D01*
X9782924Y-11271508D02*
X9801972Y-11261984D01*
X9954353Y-11442936D02*
X9963877Y-11452460D01*
X9963877Y-11452460D02*
X9954353Y-11461984D01*
X9954353Y-11461984D02*
X9944829Y-11452460D01*
X9944829Y-11452460D02*
X9954353Y-11442936D01*
X9954353Y-11442936D02*
X9954353Y-11461984D01*
X10135305Y-11261984D02*
X10097210Y-11261984D01*
X10097210Y-11261984D02*
X10078163Y-11271508D01*
X10078163Y-11271508D02*
X10068639Y-11281031D01*
X10068639Y-11281031D02*
X10049591Y-11309603D01*
X10049591Y-11309603D02*
X10040067Y-11347698D01*
X10040067Y-11347698D02*
X10040067Y-11423888D01*
X10040067Y-11423888D02*
X10049591Y-11442936D01*
X10049591Y-11442936D02*
X10059115Y-11452460D01*
X10059115Y-11452460D02*
X10078163Y-11461984D01*
X10078163Y-11461984D02*
X10116258Y-11461984D01*
X10116258Y-11461984D02*
X10135305Y-11452460D01*
X10135305Y-11452460D02*
X10144829Y-11442936D01*
X10144829Y-11442936D02*
X10154353Y-11423888D01*
X10154353Y-11423888D02*
X10154353Y-11376269D01*
X10154353Y-11376269D02*
X10144829Y-11357222D01*
X10144829Y-11357222D02*
X10135305Y-11347698D01*
X10135305Y-11347698D02*
X10116258Y-11338174D01*
X10116258Y-11338174D02*
X10078163Y-11338174D01*
X10078163Y-11338174D02*
X10059115Y-11347698D01*
X10059115Y-11347698D02*
X10049591Y-11357222D01*
X10049591Y-11357222D02*
X10040067Y-11376269D01*
X10278163Y-11261984D02*
X10297210Y-11261984D01*
X10297210Y-11261984D02*
X10316258Y-11271508D01*
X10316258Y-11271508D02*
X10325782Y-11281031D01*
X10325782Y-11281031D02*
X10335305Y-11300079D01*
X10335305Y-11300079D02*
X10344829Y-11338174D01*
X10344829Y-11338174D02*
X10344829Y-11385793D01*
X10344829Y-11385793D02*
X10335305Y-11423888D01*
X10335305Y-11423888D02*
X10325782Y-11442936D01*
X10325782Y-11442936D02*
X10316258Y-11452460D01*
X10316258Y-11452460D02*
X10297210Y-11461984D01*
X10297210Y-11461984D02*
X10278163Y-11461984D01*
X10278163Y-11461984D02*
X10259115Y-11452460D01*
X10259115Y-11452460D02*
X10249591Y-11442936D01*
X10249591Y-11442936D02*
X10240067Y-11423888D01*
X10240067Y-11423888D02*
X10230544Y-11385793D01*
X10230544Y-11385793D02*
X10230544Y-11338174D01*
X10230544Y-11338174D02*
X10240067Y-11300079D01*
X10240067Y-11300079D02*
X10249591Y-11281031D01*
X10249591Y-11281031D02*
X10259115Y-11271508D01*
X10259115Y-11271508D02*
X10278163Y-11261984D01*
X10468639Y-11261984D02*
X10487686Y-11261984D01*
X10487686Y-11261984D02*
X10506734Y-11271508D01*
X10506734Y-11271508D02*
X10516258Y-11281031D01*
X10516258Y-11281031D02*
X10525782Y-11300079D01*
X10525782Y-11300079D02*
X10535305Y-11338174D01*
X10535305Y-11338174D02*
X10535305Y-11385793D01*
X10535305Y-11385793D02*
X10525782Y-11423888D01*
X10525782Y-11423888D02*
X10516258Y-11442936D01*
X10516258Y-11442936D02*
X10506734Y-11452460D01*
X10506734Y-11452460D02*
X10487686Y-11461984D01*
X10487686Y-11461984D02*
X10468639Y-11461984D01*
X10468639Y-11461984D02*
X10449591Y-11452460D01*
X10449591Y-11452460D02*
X10440067Y-11442936D01*
X10440067Y-11442936D02*
X10430544Y-11423888D01*
X10430544Y-11423888D02*
X10421020Y-11385793D01*
X10421020Y-11385793D02*
X10421020Y-11338174D01*
X10421020Y-11338174D02*
X10430544Y-11300079D01*
X10430544Y-11300079D02*
X10440067Y-11281031D01*
X10440067Y-11281031D02*
X10449591Y-11271508D01*
X10449591Y-11271508D02*
X10468639Y-11261984D01*
X10621020Y-11461984D02*
X10621020Y-11328650D01*
X10621020Y-11347698D02*
X10630544Y-11338174D01*
X10630544Y-11338174D02*
X10649591Y-11328650D01*
X10649591Y-11328650D02*
X10678163Y-11328650D01*
X10678163Y-11328650D02*
X10697210Y-11338174D01*
X10697210Y-11338174D02*
X10706734Y-11357222D01*
X10706734Y-11357222D02*
X10706734Y-11461984D01*
X10706734Y-11357222D02*
X10716258Y-11338174D01*
X10716258Y-11338174D02*
X10735305Y-11328650D01*
X10735305Y-11328650D02*
X10763877Y-11328650D01*
X10763877Y-11328650D02*
X10782925Y-11338174D01*
X10782925Y-11338174D02*
X10792448Y-11357222D01*
X10792448Y-11357222D02*
X10792448Y-11461984D01*
X10887686Y-11461984D02*
X10887686Y-11328650D01*
X10887686Y-11347698D02*
X10897210Y-11338174D01*
X10897210Y-11338174D02*
X10916258Y-11328650D01*
X10916258Y-11328650D02*
X10944829Y-11328650D01*
X10944829Y-11328650D02*
X10963877Y-11338174D01*
X10963877Y-11338174D02*
X10973401Y-11357222D01*
X10973401Y-11357222D02*
X10973401Y-11461984D01*
X10973401Y-11357222D02*
X10982925Y-11338174D01*
X10982925Y-11338174D02*
X11001972Y-11328650D01*
X11001972Y-11328650D02*
X11030544Y-11328650D01*
X11030544Y-11328650D02*
X11049591Y-11338174D01*
X11049591Y-11338174D02*
X11059115Y-11357222D01*
X11059115Y-11357222D02*
X11059115Y-11461984D01*
X11449591Y-11252460D02*
X11278163Y-11509603D01*
X11706734Y-11261984D02*
X11725782Y-11261984D01*
X11725782Y-11261984D02*
X11744829Y-11271508D01*
X11744829Y-11271508D02*
X11754353Y-11281031D01*
X11754353Y-11281031D02*
X11763877Y-11300079D01*
X11763877Y-11300079D02*
X11773401Y-11338174D01*
X11773401Y-11338174D02*
X11773401Y-11385793D01*
X11773401Y-11385793D02*
X11763877Y-11423888D01*
X11763877Y-11423888D02*
X11754353Y-11442936D01*
X11754353Y-11442936D02*
X11744829Y-11452460D01*
X11744829Y-11452460D02*
X11725782Y-11461984D01*
X11725782Y-11461984D02*
X11706734Y-11461984D01*
X11706734Y-11461984D02*
X11687686Y-11452460D01*
X11687686Y-11452460D02*
X11678163Y-11442936D01*
X11678163Y-11442936D02*
X11668639Y-11423888D01*
X11668639Y-11423888D02*
X11659115Y-11385793D01*
X11659115Y-11385793D02*
X11659115Y-11338174D01*
X11659115Y-11338174D02*
X11668639Y-11300079D01*
X11668639Y-11300079D02*
X11678163Y-11281031D01*
X11678163Y-11281031D02*
X11687686Y-11271508D01*
X11687686Y-11271508D02*
X11706734Y-11261984D01*
X11859115Y-11442936D02*
X11868639Y-11452460D01*
X11868639Y-11452460D02*
X11859115Y-11461984D01*
X11859115Y-11461984D02*
X11849591Y-11452460D01*
X11849591Y-11452460D02*
X11859115Y-11442936D01*
X11859115Y-11442936D02*
X11859115Y-11461984D01*
X11992448Y-11261984D02*
X12011496Y-11261984D01*
X12011496Y-11261984D02*
X12030544Y-11271508D01*
X12030544Y-11271508D02*
X12040067Y-11281031D01*
X12040067Y-11281031D02*
X12049591Y-11300079D01*
X12049591Y-11300079D02*
X12059115Y-11338174D01*
X12059115Y-11338174D02*
X12059115Y-11385793D01*
X12059115Y-11385793D02*
X12049591Y-11423888D01*
X12049591Y-11423888D02*
X12040067Y-11442936D01*
X12040067Y-11442936D02*
X12030544Y-11452460D01*
X12030544Y-11452460D02*
X12011496Y-11461984D01*
X12011496Y-11461984D02*
X11992448Y-11461984D01*
X11992448Y-11461984D02*
X11973401Y-11452460D01*
X11973401Y-11452460D02*
X11963877Y-11442936D01*
X11963877Y-11442936D02*
X11954353Y-11423888D01*
X11954353Y-11423888D02*
X11944829Y-11385793D01*
X11944829Y-11385793D02*
X11944829Y-11338174D01*
X11944829Y-11338174D02*
X11954353Y-11300079D01*
X11954353Y-11300079D02*
X11963877Y-11281031D01*
X11963877Y-11281031D02*
X11973401Y-11271508D01*
X11973401Y-11271508D02*
X11992448Y-11261984D01*
X12135306Y-11281031D02*
X12144829Y-11271508D01*
X12144829Y-11271508D02*
X12163877Y-11261984D01*
X12163877Y-11261984D02*
X12211496Y-11261984D01*
X12211496Y-11261984D02*
X12230544Y-11271508D01*
X12230544Y-11271508D02*
X12240067Y-11281031D01*
X12240067Y-11281031D02*
X12249591Y-11300079D01*
X12249591Y-11300079D02*
X12249591Y-11319127D01*
X12249591Y-11319127D02*
X12240067Y-11347698D01*
X12240067Y-11347698D02*
X12125782Y-11461984D01*
X12125782Y-11461984D02*
X12249591Y-11461984D01*
X12316258Y-11261984D02*
X12440067Y-11261984D01*
X12440067Y-11261984D02*
X12373401Y-11338174D01*
X12373401Y-11338174D02*
X12401972Y-11338174D01*
X12401972Y-11338174D02*
X12421020Y-11347698D01*
X12421020Y-11347698D02*
X12430544Y-11357222D01*
X12430544Y-11357222D02*
X12440067Y-11376269D01*
X12440067Y-11376269D02*
X12440067Y-11423888D01*
X12440067Y-11423888D02*
X12430544Y-11442936D01*
X12430544Y-11442936D02*
X12421020Y-11452460D01*
X12421020Y-11452460D02*
X12401972Y-11461984D01*
X12401972Y-11461984D02*
X12344829Y-11461984D01*
X12344829Y-11461984D02*
X12325782Y-11452460D01*
X12325782Y-11452460D02*
X12316258Y-11442936D01*
X12611496Y-11261984D02*
X12573401Y-11261984D01*
X12573401Y-11261984D02*
X12554353Y-11271508D01*
X12554353Y-11271508D02*
X12544829Y-11281031D01*
X12544829Y-11281031D02*
X12525782Y-11309603D01*
X12525782Y-11309603D02*
X12516258Y-11347698D01*
X12516258Y-11347698D02*
X12516258Y-11423888D01*
X12516258Y-11423888D02*
X12525782Y-11442936D01*
X12525782Y-11442936D02*
X12535306Y-11452460D01*
X12535306Y-11452460D02*
X12554353Y-11461984D01*
X12554353Y-11461984D02*
X12592448Y-11461984D01*
X12592448Y-11461984D02*
X12611496Y-11452460D01*
X12611496Y-11452460D02*
X12621020Y-11442936D01*
X12621020Y-11442936D02*
X12630544Y-11423888D01*
X12630544Y-11423888D02*
X12630544Y-11376269D01*
X12630544Y-11376269D02*
X12621020Y-11357222D01*
X12621020Y-11357222D02*
X12611496Y-11347698D01*
X12611496Y-11347698D02*
X12592448Y-11338174D01*
X12592448Y-11338174D02*
X12554353Y-11338174D01*
X12554353Y-11338174D02*
X12535306Y-11347698D01*
X12535306Y-11347698D02*
X12525782Y-11357222D01*
X12525782Y-11357222D02*
X12516258Y-11376269D01*
X12706734Y-11261984D02*
X12706734Y-11300079D01*
X12782925Y-11261984D02*
X12782925Y-11300079D01*
X13078163Y-11538174D02*
X13068639Y-11528650D01*
X13068639Y-11528650D02*
X13049591Y-11500079D01*
X13049591Y-11500079D02*
X13040068Y-11481031D01*
X13040068Y-11481031D02*
X13030544Y-11452460D01*
X13030544Y-11452460D02*
X13021020Y-11404841D01*
X13021020Y-11404841D02*
X13021020Y-11366746D01*
X13021020Y-11366746D02*
X13030544Y-11319127D01*
X13030544Y-11319127D02*
X13040068Y-11290555D01*
X13040068Y-11290555D02*
X13049591Y-11271508D01*
X13049591Y-11271508D02*
X13068639Y-11242936D01*
X13068639Y-11242936D02*
X13078163Y-11233412D01*
X13135306Y-11261984D02*
X13259115Y-11261984D01*
X13259115Y-11261984D02*
X13192448Y-11338174D01*
X13192448Y-11338174D02*
X13221020Y-11338174D01*
X13221020Y-11338174D02*
X13240068Y-11347698D01*
X13240068Y-11347698D02*
X13249591Y-11357222D01*
X13249591Y-11357222D02*
X13259115Y-11376269D01*
X13259115Y-11376269D02*
X13259115Y-11423888D01*
X13259115Y-11423888D02*
X13249591Y-11442936D01*
X13249591Y-11442936D02*
X13240068Y-11452460D01*
X13240068Y-11452460D02*
X13221020Y-11461984D01*
X13221020Y-11461984D02*
X13163877Y-11461984D01*
X13163877Y-11461984D02*
X13144829Y-11452460D01*
X13144829Y-11452460D02*
X13135306Y-11442936D01*
X13335306Y-11281031D02*
X13344829Y-11271508D01*
X13344829Y-11271508D02*
X13363877Y-11261984D01*
X13363877Y-11261984D02*
X13411496Y-11261984D01*
X13411496Y-11261984D02*
X13430544Y-11271508D01*
X13430544Y-11271508D02*
X13440068Y-11281031D01*
X13440068Y-11281031D02*
X13449591Y-11300079D01*
X13449591Y-11300079D02*
X13449591Y-11319127D01*
X13449591Y-11319127D02*
X13440068Y-11347698D01*
X13440068Y-11347698D02*
X13325782Y-11461984D01*
X13325782Y-11461984D02*
X13449591Y-11461984D01*
X13687687Y-11461984D02*
X13687687Y-11261984D01*
X13773401Y-11461984D02*
X13773401Y-11357222D01*
X13773401Y-11357222D02*
X13763877Y-11338174D01*
X13763877Y-11338174D02*
X13744830Y-11328650D01*
X13744830Y-11328650D02*
X13716258Y-11328650D01*
X13716258Y-11328650D02*
X13697210Y-11338174D01*
X13697210Y-11338174D02*
X13687687Y-11347698D01*
X13897210Y-11461984D02*
X13878163Y-11452460D01*
X13878163Y-11452460D02*
X13868639Y-11442936D01*
X13868639Y-11442936D02*
X13859115Y-11423888D01*
X13859115Y-11423888D02*
X13859115Y-11366746D01*
X13859115Y-11366746D02*
X13868639Y-11347698D01*
X13868639Y-11347698D02*
X13878163Y-11338174D01*
X13878163Y-11338174D02*
X13897210Y-11328650D01*
X13897210Y-11328650D02*
X13925782Y-11328650D01*
X13925782Y-11328650D02*
X13944830Y-11338174D01*
X13944830Y-11338174D02*
X13954353Y-11347698D01*
X13954353Y-11347698D02*
X13963877Y-11366746D01*
X13963877Y-11366746D02*
X13963877Y-11423888D01*
X13963877Y-11423888D02*
X13954353Y-11442936D01*
X13954353Y-11442936D02*
X13944830Y-11452460D01*
X13944830Y-11452460D02*
X13925782Y-11461984D01*
X13925782Y-11461984D02*
X13897210Y-11461984D01*
X14078163Y-11461984D02*
X14059115Y-11452460D01*
X14059115Y-11452460D02*
X14049591Y-11433412D01*
X14049591Y-11433412D02*
X14049591Y-11261984D01*
X14230544Y-11452460D02*
X14211496Y-11461984D01*
X14211496Y-11461984D02*
X14173401Y-11461984D01*
X14173401Y-11461984D02*
X14154353Y-11452460D01*
X14154353Y-11452460D02*
X14144830Y-11433412D01*
X14144830Y-11433412D02*
X14144830Y-11357222D01*
X14144830Y-11357222D02*
X14154353Y-11338174D01*
X14154353Y-11338174D02*
X14173401Y-11328650D01*
X14173401Y-11328650D02*
X14211496Y-11328650D01*
X14211496Y-11328650D02*
X14230544Y-11338174D01*
X14230544Y-11338174D02*
X14240068Y-11357222D01*
X14240068Y-11357222D02*
X14240068Y-11376269D01*
X14240068Y-11376269D02*
X14144830Y-11395317D01*
X14316258Y-11452460D02*
X14335306Y-11461984D01*
X14335306Y-11461984D02*
X14373401Y-11461984D01*
X14373401Y-11461984D02*
X14392449Y-11452460D01*
X14392449Y-11452460D02*
X14401972Y-11433412D01*
X14401972Y-11433412D02*
X14401972Y-11423888D01*
X14401972Y-11423888D02*
X14392449Y-11404841D01*
X14392449Y-11404841D02*
X14373401Y-11395317D01*
X14373401Y-11395317D02*
X14344830Y-11395317D01*
X14344830Y-11395317D02*
X14325782Y-11385793D01*
X14325782Y-11385793D02*
X14316258Y-11366746D01*
X14316258Y-11366746D02*
X14316258Y-11357222D01*
X14316258Y-11357222D02*
X14325782Y-11338174D01*
X14325782Y-11338174D02*
X14344830Y-11328650D01*
X14344830Y-11328650D02*
X14373401Y-11328650D01*
X14373401Y-11328650D02*
X14392449Y-11338174D01*
X14468639Y-11538174D02*
X14478163Y-11528650D01*
X14478163Y-11528650D02*
X14497211Y-11500079D01*
X14497211Y-11500079D02*
X14506734Y-11481031D01*
X14506734Y-11481031D02*
X14516258Y-11452460D01*
X14516258Y-11452460D02*
X14525782Y-11404841D01*
X14525782Y-11404841D02*
X14525782Y-11366746D01*
X14525782Y-11366746D02*
X14516258Y-11319127D01*
X14516258Y-11319127D02*
X14506734Y-11290555D01*
X14506734Y-11290555D02*
X14497211Y-11271508D01*
X14497211Y-11271508D02*
X14478163Y-11242936D01*
X14478163Y-11242936D02*
X14468639Y-11233412D01*
D13*
X9443600Y-11575000D02*
X9443600Y-11694000D01*
X9384100Y-11634500D02*
X9503100Y-11634500D01*
D11*
X9868639Y-11725984D02*
X9754353Y-11725984D01*
X9811496Y-11725984D02*
X9811496Y-11525984D01*
X9811496Y-11525984D02*
X9792448Y-11554555D01*
X9792448Y-11554555D02*
X9773401Y-11573603D01*
X9773401Y-11573603D02*
X9754353Y-11583127D01*
X9954353Y-11706936D02*
X9963877Y-11716460D01*
X9963877Y-11716460D02*
X9954353Y-11725984D01*
X9954353Y-11725984D02*
X9944829Y-11716460D01*
X9944829Y-11716460D02*
X9954353Y-11706936D01*
X9954353Y-11706936D02*
X9954353Y-11725984D01*
X10154353Y-11725984D02*
X10040067Y-11725984D01*
X10097210Y-11725984D02*
X10097210Y-11525984D01*
X10097210Y-11525984D02*
X10078163Y-11554555D01*
X10078163Y-11554555D02*
X10059115Y-11573603D01*
X10059115Y-11573603D02*
X10040067Y-11583127D01*
X10249591Y-11725984D02*
X10287686Y-11725984D01*
X10287686Y-11725984D02*
X10306734Y-11716460D01*
X10306734Y-11716460D02*
X10316258Y-11706936D01*
X10316258Y-11706936D02*
X10335305Y-11678365D01*
X10335305Y-11678365D02*
X10344829Y-11640269D01*
X10344829Y-11640269D02*
X10344829Y-11564079D01*
X10344829Y-11564079D02*
X10335305Y-11545031D01*
X10335305Y-11545031D02*
X10325782Y-11535508D01*
X10325782Y-11535508D02*
X10306734Y-11525984D01*
X10306734Y-11525984D02*
X10268639Y-11525984D01*
X10268639Y-11525984D02*
X10249591Y-11535508D01*
X10249591Y-11535508D02*
X10240067Y-11545031D01*
X10240067Y-11545031D02*
X10230544Y-11564079D01*
X10230544Y-11564079D02*
X10230544Y-11611698D01*
X10230544Y-11611698D02*
X10240067Y-11630746D01*
X10240067Y-11630746D02*
X10249591Y-11640269D01*
X10249591Y-11640269D02*
X10268639Y-11649793D01*
X10268639Y-11649793D02*
X10306734Y-11649793D01*
X10306734Y-11649793D02*
X10325782Y-11640269D01*
X10325782Y-11640269D02*
X10335305Y-11630746D01*
X10335305Y-11630746D02*
X10344829Y-11611698D01*
X10468639Y-11525984D02*
X10487686Y-11525984D01*
X10487686Y-11525984D02*
X10506734Y-11535508D01*
X10506734Y-11535508D02*
X10516258Y-11545031D01*
X10516258Y-11545031D02*
X10525782Y-11564079D01*
X10525782Y-11564079D02*
X10535305Y-11602174D01*
X10535305Y-11602174D02*
X10535305Y-11649793D01*
X10535305Y-11649793D02*
X10525782Y-11687888D01*
X10525782Y-11687888D02*
X10516258Y-11706936D01*
X10516258Y-11706936D02*
X10506734Y-11716460D01*
X10506734Y-11716460D02*
X10487686Y-11725984D01*
X10487686Y-11725984D02*
X10468639Y-11725984D01*
X10468639Y-11725984D02*
X10449591Y-11716460D01*
X10449591Y-11716460D02*
X10440067Y-11706936D01*
X10440067Y-11706936D02*
X10430544Y-11687888D01*
X10430544Y-11687888D02*
X10421020Y-11649793D01*
X10421020Y-11649793D02*
X10421020Y-11602174D01*
X10421020Y-11602174D02*
X10430544Y-11564079D01*
X10430544Y-11564079D02*
X10440067Y-11545031D01*
X10440067Y-11545031D02*
X10449591Y-11535508D01*
X10449591Y-11535508D02*
X10468639Y-11525984D01*
X10621020Y-11725984D02*
X10621020Y-11592650D01*
X10621020Y-11611698D02*
X10630544Y-11602174D01*
X10630544Y-11602174D02*
X10649591Y-11592650D01*
X10649591Y-11592650D02*
X10678163Y-11592650D01*
X10678163Y-11592650D02*
X10697210Y-11602174D01*
X10697210Y-11602174D02*
X10706734Y-11621222D01*
X10706734Y-11621222D02*
X10706734Y-11725984D01*
X10706734Y-11621222D02*
X10716258Y-11602174D01*
X10716258Y-11602174D02*
X10735305Y-11592650D01*
X10735305Y-11592650D02*
X10763877Y-11592650D01*
X10763877Y-11592650D02*
X10782925Y-11602174D01*
X10782925Y-11602174D02*
X10792448Y-11621222D01*
X10792448Y-11621222D02*
X10792448Y-11725984D01*
X10887686Y-11725984D02*
X10887686Y-11592650D01*
X10887686Y-11611698D02*
X10897210Y-11602174D01*
X10897210Y-11602174D02*
X10916258Y-11592650D01*
X10916258Y-11592650D02*
X10944829Y-11592650D01*
X10944829Y-11592650D02*
X10963877Y-11602174D01*
X10963877Y-11602174D02*
X10973401Y-11621222D01*
X10973401Y-11621222D02*
X10973401Y-11725984D01*
X10973401Y-11621222D02*
X10982925Y-11602174D01*
X10982925Y-11602174D02*
X11001972Y-11592650D01*
X11001972Y-11592650D02*
X11030544Y-11592650D01*
X11030544Y-11592650D02*
X11049591Y-11602174D01*
X11049591Y-11602174D02*
X11059115Y-11621222D01*
X11059115Y-11621222D02*
X11059115Y-11725984D01*
X11449591Y-11516460D02*
X11278163Y-11773603D01*
X11706734Y-11525984D02*
X11725782Y-11525984D01*
X11725782Y-11525984D02*
X11744829Y-11535508D01*
X11744829Y-11535508D02*
X11754353Y-11545031D01*
X11754353Y-11545031D02*
X11763877Y-11564079D01*
X11763877Y-11564079D02*
X11773401Y-11602174D01*
X11773401Y-11602174D02*
X11773401Y-11649793D01*
X11773401Y-11649793D02*
X11763877Y-11687888D01*
X11763877Y-11687888D02*
X11754353Y-11706936D01*
X11754353Y-11706936D02*
X11744829Y-11716460D01*
X11744829Y-11716460D02*
X11725782Y-11725984D01*
X11725782Y-11725984D02*
X11706734Y-11725984D01*
X11706734Y-11725984D02*
X11687686Y-11716460D01*
X11687686Y-11716460D02*
X11678163Y-11706936D01*
X11678163Y-11706936D02*
X11668639Y-11687888D01*
X11668639Y-11687888D02*
X11659115Y-11649793D01*
X11659115Y-11649793D02*
X11659115Y-11602174D01*
X11659115Y-11602174D02*
X11668639Y-11564079D01*
X11668639Y-11564079D02*
X11678163Y-11545031D01*
X11678163Y-11545031D02*
X11687686Y-11535508D01*
X11687686Y-11535508D02*
X11706734Y-11525984D01*
X11859115Y-11706936D02*
X11868639Y-11716460D01*
X11868639Y-11716460D02*
X11859115Y-11725984D01*
X11859115Y-11725984D02*
X11849591Y-11716460D01*
X11849591Y-11716460D02*
X11859115Y-11706936D01*
X11859115Y-11706936D02*
X11859115Y-11725984D01*
X11992448Y-11525984D02*
X12011496Y-11525984D01*
X12011496Y-11525984D02*
X12030544Y-11535508D01*
X12030544Y-11535508D02*
X12040067Y-11545031D01*
X12040067Y-11545031D02*
X12049591Y-11564079D01*
X12049591Y-11564079D02*
X12059115Y-11602174D01*
X12059115Y-11602174D02*
X12059115Y-11649793D01*
X12059115Y-11649793D02*
X12049591Y-11687888D01*
X12049591Y-11687888D02*
X12040067Y-11706936D01*
X12040067Y-11706936D02*
X12030544Y-11716460D01*
X12030544Y-11716460D02*
X12011496Y-11725984D01*
X12011496Y-11725984D02*
X11992448Y-11725984D01*
X11992448Y-11725984D02*
X11973401Y-11716460D01*
X11973401Y-11716460D02*
X11963877Y-11706936D01*
X11963877Y-11706936D02*
X11954353Y-11687888D01*
X11954353Y-11687888D02*
X11944829Y-11649793D01*
X11944829Y-11649793D02*
X11944829Y-11602174D01*
X11944829Y-11602174D02*
X11954353Y-11564079D01*
X11954353Y-11564079D02*
X11963877Y-11545031D01*
X11963877Y-11545031D02*
X11973401Y-11535508D01*
X11973401Y-11535508D02*
X11992448Y-11525984D01*
X12230544Y-11592650D02*
X12230544Y-11725984D01*
X12182925Y-11516460D02*
X12135306Y-11659317D01*
X12135306Y-11659317D02*
X12259115Y-11659317D01*
X12421020Y-11525984D02*
X12382925Y-11525984D01*
X12382925Y-11525984D02*
X12363877Y-11535508D01*
X12363877Y-11535508D02*
X12354353Y-11545031D01*
X12354353Y-11545031D02*
X12335306Y-11573603D01*
X12335306Y-11573603D02*
X12325782Y-11611698D01*
X12325782Y-11611698D02*
X12325782Y-11687888D01*
X12325782Y-11687888D02*
X12335306Y-11706936D01*
X12335306Y-11706936D02*
X12344829Y-11716460D01*
X12344829Y-11716460D02*
X12363877Y-11725984D01*
X12363877Y-11725984D02*
X12401972Y-11725984D01*
X12401972Y-11725984D02*
X12421020Y-11716460D01*
X12421020Y-11716460D02*
X12430544Y-11706936D01*
X12430544Y-11706936D02*
X12440067Y-11687888D01*
X12440067Y-11687888D02*
X12440067Y-11640269D01*
X12440067Y-11640269D02*
X12430544Y-11621222D01*
X12430544Y-11621222D02*
X12421020Y-11611698D01*
X12421020Y-11611698D02*
X12401972Y-11602174D01*
X12401972Y-11602174D02*
X12363877Y-11602174D01*
X12363877Y-11602174D02*
X12344829Y-11611698D01*
X12344829Y-11611698D02*
X12335306Y-11621222D01*
X12335306Y-11621222D02*
X12325782Y-11640269D01*
X12535306Y-11725984D02*
X12573401Y-11725984D01*
X12573401Y-11725984D02*
X12592448Y-11716460D01*
X12592448Y-11716460D02*
X12601972Y-11706936D01*
X12601972Y-11706936D02*
X12621020Y-11678365D01*
X12621020Y-11678365D02*
X12630544Y-11640269D01*
X12630544Y-11640269D02*
X12630544Y-11564079D01*
X12630544Y-11564079D02*
X12621020Y-11545031D01*
X12621020Y-11545031D02*
X12611496Y-11535508D01*
X12611496Y-11535508D02*
X12592448Y-11525984D01*
X12592448Y-11525984D02*
X12554353Y-11525984D01*
X12554353Y-11525984D02*
X12535306Y-11535508D01*
X12535306Y-11535508D02*
X12525782Y-11545031D01*
X12525782Y-11545031D02*
X12516258Y-11564079D01*
X12516258Y-11564079D02*
X12516258Y-11611698D01*
X12516258Y-11611698D02*
X12525782Y-11630746D01*
X12525782Y-11630746D02*
X12535306Y-11640269D01*
X12535306Y-11640269D02*
X12554353Y-11649793D01*
X12554353Y-11649793D02*
X12592448Y-11649793D01*
X12592448Y-11649793D02*
X12611496Y-11640269D01*
X12611496Y-11640269D02*
X12621020Y-11630746D01*
X12621020Y-11630746D02*
X12630544Y-11611698D01*
X12706734Y-11525984D02*
X12706734Y-11564079D01*
X12782925Y-11525984D02*
X12782925Y-11564079D01*
X13078163Y-11802174D02*
X13068639Y-11792650D01*
X13068639Y-11792650D02*
X13049591Y-11764079D01*
X13049591Y-11764079D02*
X13040068Y-11745031D01*
X13040068Y-11745031D02*
X13030544Y-11716460D01*
X13030544Y-11716460D02*
X13021020Y-11668841D01*
X13021020Y-11668841D02*
X13021020Y-11630746D01*
X13021020Y-11630746D02*
X13030544Y-11583127D01*
X13030544Y-11583127D02*
X13040068Y-11554555D01*
X13040068Y-11554555D02*
X13049591Y-11535508D01*
X13049591Y-11535508D02*
X13068639Y-11506936D01*
X13068639Y-11506936D02*
X13078163Y-11497412D01*
X13144829Y-11545031D02*
X13154353Y-11535508D01*
X13154353Y-11535508D02*
X13173401Y-11525984D01*
X13173401Y-11525984D02*
X13221020Y-11525984D01*
X13221020Y-11525984D02*
X13240068Y-11535508D01*
X13240068Y-11535508D02*
X13249591Y-11545031D01*
X13249591Y-11545031D02*
X13259115Y-11564079D01*
X13259115Y-11564079D02*
X13259115Y-11583127D01*
X13259115Y-11583127D02*
X13249591Y-11611698D01*
X13249591Y-11611698D02*
X13135306Y-11725984D01*
X13135306Y-11725984D02*
X13259115Y-11725984D01*
X13497210Y-11725984D02*
X13497210Y-11525984D01*
X13582925Y-11725984D02*
X13582925Y-11621222D01*
X13582925Y-11621222D02*
X13573401Y-11602174D01*
X13573401Y-11602174D02*
X13554353Y-11592650D01*
X13554353Y-11592650D02*
X13525782Y-11592650D01*
X13525782Y-11592650D02*
X13506734Y-11602174D01*
X13506734Y-11602174D02*
X13497210Y-11611698D01*
X13706734Y-11725984D02*
X13687687Y-11716460D01*
X13687687Y-11716460D02*
X13678163Y-11706936D01*
X13678163Y-11706936D02*
X13668639Y-11687888D01*
X13668639Y-11687888D02*
X13668639Y-11630746D01*
X13668639Y-11630746D02*
X13678163Y-11611698D01*
X13678163Y-11611698D02*
X13687687Y-11602174D01*
X13687687Y-11602174D02*
X13706734Y-11592650D01*
X13706734Y-11592650D02*
X13735306Y-11592650D01*
X13735306Y-11592650D02*
X13754353Y-11602174D01*
X13754353Y-11602174D02*
X13763877Y-11611698D01*
X13763877Y-11611698D02*
X13773401Y-11630746D01*
X13773401Y-11630746D02*
X13773401Y-11687888D01*
X13773401Y-11687888D02*
X13763877Y-11706936D01*
X13763877Y-11706936D02*
X13754353Y-11716460D01*
X13754353Y-11716460D02*
X13735306Y-11725984D01*
X13735306Y-11725984D02*
X13706734Y-11725984D01*
X13887687Y-11725984D02*
X13868639Y-11716460D01*
X13868639Y-11716460D02*
X13859115Y-11697412D01*
X13859115Y-11697412D02*
X13859115Y-11525984D01*
X14040068Y-11716460D02*
X14021020Y-11725984D01*
X14021020Y-11725984D02*
X13982925Y-11725984D01*
X13982925Y-11725984D02*
X13963877Y-11716460D01*
X13963877Y-11716460D02*
X13954353Y-11697412D01*
X13954353Y-11697412D02*
X13954353Y-11621222D01*
X13954353Y-11621222D02*
X13963877Y-11602174D01*
X13963877Y-11602174D02*
X13982925Y-11592650D01*
X13982925Y-11592650D02*
X14021020Y-11592650D01*
X14021020Y-11592650D02*
X14040068Y-11602174D01*
X14040068Y-11602174D02*
X14049591Y-11621222D01*
X14049591Y-11621222D02*
X14049591Y-11640269D01*
X14049591Y-11640269D02*
X13954353Y-11659317D01*
X14125782Y-11716460D02*
X14144830Y-11725984D01*
X14144830Y-11725984D02*
X14182925Y-11725984D01*
X14182925Y-11725984D02*
X14201972Y-11716460D01*
X14201972Y-11716460D02*
X14211496Y-11697412D01*
X14211496Y-11697412D02*
X14211496Y-11687888D01*
X14211496Y-11687888D02*
X14201972Y-11668841D01*
X14201972Y-11668841D02*
X14182925Y-11659317D01*
X14182925Y-11659317D02*
X14154353Y-11659317D01*
X14154353Y-11659317D02*
X14135306Y-11649793D01*
X14135306Y-11649793D02*
X14125782Y-11630746D01*
X14125782Y-11630746D02*
X14125782Y-11621222D01*
X14125782Y-11621222D02*
X14135306Y-11602174D01*
X14135306Y-11602174D02*
X14154353Y-11592650D01*
X14154353Y-11592650D02*
X14182925Y-11592650D01*
X14182925Y-11592650D02*
X14201972Y-11602174D01*
X14278163Y-11802174D02*
X14287687Y-11792650D01*
X14287687Y-11792650D02*
X14306734Y-11764079D01*
X14306734Y-11764079D02*
X14316258Y-11745031D01*
X14316258Y-11745031D02*
X14325782Y-11716460D01*
X14325782Y-11716460D02*
X14335306Y-11668841D01*
X14335306Y-11668841D02*
X14335306Y-11630746D01*
X14335306Y-11630746D02*
X14325782Y-11583127D01*
X14325782Y-11583127D02*
X14316258Y-11554555D01*
X14316258Y-11554555D02*
X14306734Y-11535508D01*
X14306734Y-11535508D02*
X14287687Y-11506936D01*
X14287687Y-11506936D02*
X14278163Y-11497412D01*
D14*
X9477033Y-11961433D02*
X9477033Y-11835567D01*
X9351167Y-11835567D01*
X9351167Y-11961433D01*
X9477033Y-11961433D01*
D11*
X9868639Y-11989984D02*
X9754353Y-11989984D01*
X9811496Y-11989984D02*
X9811496Y-11789984D01*
X9811496Y-11789984D02*
X9792448Y-11818555D01*
X9792448Y-11818555D02*
X9773401Y-11837603D01*
X9773401Y-11837603D02*
X9754353Y-11847127D01*
X9954353Y-11970936D02*
X9963877Y-11980460D01*
X9963877Y-11980460D02*
X9954353Y-11989984D01*
X9954353Y-11989984D02*
X9944829Y-11980460D01*
X9944829Y-11980460D02*
X9954353Y-11970936D01*
X9954353Y-11970936D02*
X9954353Y-11989984D01*
X10030544Y-11789984D02*
X10163877Y-11789984D01*
X10163877Y-11789984D02*
X10078163Y-11989984D01*
X10268639Y-11875698D02*
X10249591Y-11866174D01*
X10249591Y-11866174D02*
X10240067Y-11856650D01*
X10240067Y-11856650D02*
X10230544Y-11837603D01*
X10230544Y-11837603D02*
X10230544Y-11828079D01*
X10230544Y-11828079D02*
X10240067Y-11809031D01*
X10240067Y-11809031D02*
X10249591Y-11799508D01*
X10249591Y-11799508D02*
X10268639Y-11789984D01*
X10268639Y-11789984D02*
X10306734Y-11789984D01*
X10306734Y-11789984D02*
X10325782Y-11799508D01*
X10325782Y-11799508D02*
X10335305Y-11809031D01*
X10335305Y-11809031D02*
X10344829Y-11828079D01*
X10344829Y-11828079D02*
X10344829Y-11837603D01*
X10344829Y-11837603D02*
X10335305Y-11856650D01*
X10335305Y-11856650D02*
X10325782Y-11866174D01*
X10325782Y-11866174D02*
X10306734Y-11875698D01*
X10306734Y-11875698D02*
X10268639Y-11875698D01*
X10268639Y-11875698D02*
X10249591Y-11885222D01*
X10249591Y-11885222D02*
X10240067Y-11894746D01*
X10240067Y-11894746D02*
X10230544Y-11913793D01*
X10230544Y-11913793D02*
X10230544Y-11951888D01*
X10230544Y-11951888D02*
X10240067Y-11970936D01*
X10240067Y-11970936D02*
X10249591Y-11980460D01*
X10249591Y-11980460D02*
X10268639Y-11989984D01*
X10268639Y-11989984D02*
X10306734Y-11989984D01*
X10306734Y-11989984D02*
X10325782Y-11980460D01*
X10325782Y-11980460D02*
X10335305Y-11970936D01*
X10335305Y-11970936D02*
X10344829Y-11951888D01*
X10344829Y-11951888D02*
X10344829Y-11913793D01*
X10344829Y-11913793D02*
X10335305Y-11894746D01*
X10335305Y-11894746D02*
X10325782Y-11885222D01*
X10325782Y-11885222D02*
X10306734Y-11875698D01*
X10468639Y-11789984D02*
X10487686Y-11789984D01*
X10487686Y-11789984D02*
X10506734Y-11799508D01*
X10506734Y-11799508D02*
X10516258Y-11809031D01*
X10516258Y-11809031D02*
X10525782Y-11828079D01*
X10525782Y-11828079D02*
X10535305Y-11866174D01*
X10535305Y-11866174D02*
X10535305Y-11913793D01*
X10535305Y-11913793D02*
X10525782Y-11951888D01*
X10525782Y-11951888D02*
X10516258Y-11970936D01*
X10516258Y-11970936D02*
X10506734Y-11980460D01*
X10506734Y-11980460D02*
X10487686Y-11989984D01*
X10487686Y-11989984D02*
X10468639Y-11989984D01*
X10468639Y-11989984D02*
X10449591Y-11980460D01*
X10449591Y-11980460D02*
X10440067Y-11970936D01*
X10440067Y-11970936D02*
X10430544Y-11951888D01*
X10430544Y-11951888D02*
X10421020Y-11913793D01*
X10421020Y-11913793D02*
X10421020Y-11866174D01*
X10421020Y-11866174D02*
X10430544Y-11828079D01*
X10430544Y-11828079D02*
X10440067Y-11809031D01*
X10440067Y-11809031D02*
X10449591Y-11799508D01*
X10449591Y-11799508D02*
X10468639Y-11789984D01*
X10621020Y-11989984D02*
X10621020Y-11856650D01*
X10621020Y-11875698D02*
X10630544Y-11866174D01*
X10630544Y-11866174D02*
X10649591Y-11856650D01*
X10649591Y-11856650D02*
X10678163Y-11856650D01*
X10678163Y-11856650D02*
X10697210Y-11866174D01*
X10697210Y-11866174D02*
X10706734Y-11885222D01*
X10706734Y-11885222D02*
X10706734Y-11989984D01*
X10706734Y-11885222D02*
X10716258Y-11866174D01*
X10716258Y-11866174D02*
X10735305Y-11856650D01*
X10735305Y-11856650D02*
X10763877Y-11856650D01*
X10763877Y-11856650D02*
X10782925Y-11866174D01*
X10782925Y-11866174D02*
X10792448Y-11885222D01*
X10792448Y-11885222D02*
X10792448Y-11989984D01*
X10887686Y-11989984D02*
X10887686Y-11856650D01*
X10887686Y-11875698D02*
X10897210Y-11866174D01*
X10897210Y-11866174D02*
X10916258Y-11856650D01*
X10916258Y-11856650D02*
X10944829Y-11856650D01*
X10944829Y-11856650D02*
X10963877Y-11866174D01*
X10963877Y-11866174D02*
X10973401Y-11885222D01*
X10973401Y-11885222D02*
X10973401Y-11989984D01*
X10973401Y-11885222D02*
X10982925Y-11866174D01*
X10982925Y-11866174D02*
X11001972Y-11856650D01*
X11001972Y-11856650D02*
X11030544Y-11856650D01*
X11030544Y-11856650D02*
X11049591Y-11866174D01*
X11049591Y-11866174D02*
X11059115Y-11885222D01*
X11059115Y-11885222D02*
X11059115Y-11989984D01*
X11449591Y-11780460D02*
X11278163Y-12037603D01*
X11706734Y-11789984D02*
X11725782Y-11789984D01*
X11725782Y-11789984D02*
X11744829Y-11799508D01*
X11744829Y-11799508D02*
X11754353Y-11809031D01*
X11754353Y-11809031D02*
X11763877Y-11828079D01*
X11763877Y-11828079D02*
X11773401Y-11866174D01*
X11773401Y-11866174D02*
X11773401Y-11913793D01*
X11773401Y-11913793D02*
X11763877Y-11951888D01*
X11763877Y-11951888D02*
X11754353Y-11970936D01*
X11754353Y-11970936D02*
X11744829Y-11980460D01*
X11744829Y-11980460D02*
X11725782Y-11989984D01*
X11725782Y-11989984D02*
X11706734Y-11989984D01*
X11706734Y-11989984D02*
X11687686Y-11980460D01*
X11687686Y-11980460D02*
X11678163Y-11970936D01*
X11678163Y-11970936D02*
X11668639Y-11951888D01*
X11668639Y-11951888D02*
X11659115Y-11913793D01*
X11659115Y-11913793D02*
X11659115Y-11866174D01*
X11659115Y-11866174D02*
X11668639Y-11828079D01*
X11668639Y-11828079D02*
X11678163Y-11809031D01*
X11678163Y-11809031D02*
X11687686Y-11799508D01*
X11687686Y-11799508D02*
X11706734Y-11789984D01*
X11859115Y-11970936D02*
X11868639Y-11980460D01*
X11868639Y-11980460D02*
X11859115Y-11989984D01*
X11859115Y-11989984D02*
X11849591Y-11980460D01*
X11849591Y-11980460D02*
X11859115Y-11970936D01*
X11859115Y-11970936D02*
X11859115Y-11989984D01*
X11992448Y-11789984D02*
X12011496Y-11789984D01*
X12011496Y-11789984D02*
X12030544Y-11799508D01*
X12030544Y-11799508D02*
X12040067Y-11809031D01*
X12040067Y-11809031D02*
X12049591Y-11828079D01*
X12049591Y-11828079D02*
X12059115Y-11866174D01*
X12059115Y-11866174D02*
X12059115Y-11913793D01*
X12059115Y-11913793D02*
X12049591Y-11951888D01*
X12049591Y-11951888D02*
X12040067Y-11970936D01*
X12040067Y-11970936D02*
X12030544Y-11980460D01*
X12030544Y-11980460D02*
X12011496Y-11989984D01*
X12011496Y-11989984D02*
X11992448Y-11989984D01*
X11992448Y-11989984D02*
X11973401Y-11980460D01*
X11973401Y-11980460D02*
X11963877Y-11970936D01*
X11963877Y-11970936D02*
X11954353Y-11951888D01*
X11954353Y-11951888D02*
X11944829Y-11913793D01*
X11944829Y-11913793D02*
X11944829Y-11866174D01*
X11944829Y-11866174D02*
X11954353Y-11828079D01*
X11954353Y-11828079D02*
X11963877Y-11809031D01*
X11963877Y-11809031D02*
X11973401Y-11799508D01*
X11973401Y-11799508D02*
X11992448Y-11789984D01*
X12125782Y-11789984D02*
X12259115Y-11789984D01*
X12259115Y-11789984D02*
X12173401Y-11989984D01*
X12373401Y-11789984D02*
X12392448Y-11789984D01*
X12392448Y-11789984D02*
X12411496Y-11799508D01*
X12411496Y-11799508D02*
X12421020Y-11809031D01*
X12421020Y-11809031D02*
X12430544Y-11828079D01*
X12430544Y-11828079D02*
X12440067Y-11866174D01*
X12440067Y-11866174D02*
X12440067Y-11913793D01*
X12440067Y-11913793D02*
X12430544Y-11951888D01*
X12430544Y-11951888D02*
X12421020Y-11970936D01*
X12421020Y-11970936D02*
X12411496Y-11980460D01*
X12411496Y-11980460D02*
X12392448Y-11989984D01*
X12392448Y-11989984D02*
X12373401Y-11989984D01*
X12373401Y-11989984D02*
X12354353Y-11980460D01*
X12354353Y-11980460D02*
X12344829Y-11970936D01*
X12344829Y-11970936D02*
X12335306Y-11951888D01*
X12335306Y-11951888D02*
X12325782Y-11913793D01*
X12325782Y-11913793D02*
X12325782Y-11866174D01*
X12325782Y-11866174D02*
X12335306Y-11828079D01*
X12335306Y-11828079D02*
X12344829Y-11809031D01*
X12344829Y-11809031D02*
X12354353Y-11799508D01*
X12354353Y-11799508D02*
X12373401Y-11789984D01*
X12630544Y-11989984D02*
X12516258Y-11989984D01*
X12573401Y-11989984D02*
X12573401Y-11789984D01*
X12573401Y-11789984D02*
X12554353Y-11818555D01*
X12554353Y-11818555D02*
X12535306Y-11837603D01*
X12535306Y-11837603D02*
X12516258Y-11847127D01*
X12706734Y-11789984D02*
X12706734Y-11828079D01*
X12782925Y-11789984D02*
X12782925Y-11828079D01*
X13078163Y-12066174D02*
X13068639Y-12056650D01*
X13068639Y-12056650D02*
X13049591Y-12028079D01*
X13049591Y-12028079D02*
X13040068Y-12009031D01*
X13040068Y-12009031D02*
X13030544Y-11980460D01*
X13030544Y-11980460D02*
X13021020Y-11932841D01*
X13021020Y-11932841D02*
X13021020Y-11894746D01*
X13021020Y-11894746D02*
X13030544Y-11847127D01*
X13030544Y-11847127D02*
X13040068Y-11818555D01*
X13040068Y-11818555D02*
X13049591Y-11799508D01*
X13049591Y-11799508D02*
X13068639Y-11770936D01*
X13068639Y-11770936D02*
X13078163Y-11761412D01*
X13144829Y-11809031D02*
X13154353Y-11799508D01*
X13154353Y-11799508D02*
X13173401Y-11789984D01*
X13173401Y-11789984D02*
X13221020Y-11789984D01*
X13221020Y-11789984D02*
X13240068Y-11799508D01*
X13240068Y-11799508D02*
X13249591Y-11809031D01*
X13249591Y-11809031D02*
X13259115Y-11828079D01*
X13259115Y-11828079D02*
X13259115Y-11847127D01*
X13259115Y-11847127D02*
X13249591Y-11875698D01*
X13249591Y-11875698D02*
X13135306Y-11989984D01*
X13135306Y-11989984D02*
X13259115Y-11989984D01*
X13497210Y-11989984D02*
X13497210Y-11789984D01*
X13582925Y-11989984D02*
X13582925Y-11885222D01*
X13582925Y-11885222D02*
X13573401Y-11866174D01*
X13573401Y-11866174D02*
X13554353Y-11856650D01*
X13554353Y-11856650D02*
X13525782Y-11856650D01*
X13525782Y-11856650D02*
X13506734Y-11866174D01*
X13506734Y-11866174D02*
X13497210Y-11875698D01*
X13706734Y-11989984D02*
X13687687Y-11980460D01*
X13687687Y-11980460D02*
X13678163Y-11970936D01*
X13678163Y-11970936D02*
X13668639Y-11951888D01*
X13668639Y-11951888D02*
X13668639Y-11894746D01*
X13668639Y-11894746D02*
X13678163Y-11875698D01*
X13678163Y-11875698D02*
X13687687Y-11866174D01*
X13687687Y-11866174D02*
X13706734Y-11856650D01*
X13706734Y-11856650D02*
X13735306Y-11856650D01*
X13735306Y-11856650D02*
X13754353Y-11866174D01*
X13754353Y-11866174D02*
X13763877Y-11875698D01*
X13763877Y-11875698D02*
X13773401Y-11894746D01*
X13773401Y-11894746D02*
X13773401Y-11951888D01*
X13773401Y-11951888D02*
X13763877Y-11970936D01*
X13763877Y-11970936D02*
X13754353Y-11980460D01*
X13754353Y-11980460D02*
X13735306Y-11989984D01*
X13735306Y-11989984D02*
X13706734Y-11989984D01*
X13887687Y-11989984D02*
X13868639Y-11980460D01*
X13868639Y-11980460D02*
X13859115Y-11961412D01*
X13859115Y-11961412D02*
X13859115Y-11789984D01*
X14040068Y-11980460D02*
X14021020Y-11989984D01*
X14021020Y-11989984D02*
X13982925Y-11989984D01*
X13982925Y-11989984D02*
X13963877Y-11980460D01*
X13963877Y-11980460D02*
X13954353Y-11961412D01*
X13954353Y-11961412D02*
X13954353Y-11885222D01*
X13954353Y-11885222D02*
X13963877Y-11866174D01*
X13963877Y-11866174D02*
X13982925Y-11856650D01*
X13982925Y-11856650D02*
X14021020Y-11856650D01*
X14021020Y-11856650D02*
X14040068Y-11866174D01*
X14040068Y-11866174D02*
X14049591Y-11885222D01*
X14049591Y-11885222D02*
X14049591Y-11904269D01*
X14049591Y-11904269D02*
X13954353Y-11923317D01*
X14125782Y-11980460D02*
X14144830Y-11989984D01*
X14144830Y-11989984D02*
X14182925Y-11989984D01*
X14182925Y-11989984D02*
X14201972Y-11980460D01*
X14201972Y-11980460D02*
X14211496Y-11961412D01*
X14211496Y-11961412D02*
X14211496Y-11951888D01*
X14211496Y-11951888D02*
X14201972Y-11932841D01*
X14201972Y-11932841D02*
X14182925Y-11923317D01*
X14182925Y-11923317D02*
X14154353Y-11923317D01*
X14154353Y-11923317D02*
X14135306Y-11913793D01*
X14135306Y-11913793D02*
X14125782Y-11894746D01*
X14125782Y-11894746D02*
X14125782Y-11885222D01*
X14125782Y-11885222D02*
X14135306Y-11866174D01*
X14135306Y-11866174D02*
X14154353Y-11856650D01*
X14154353Y-11856650D02*
X14182925Y-11856650D01*
X14182925Y-11856650D02*
X14201972Y-11866174D01*
X14278163Y-12066174D02*
X14287687Y-12056650D01*
X14287687Y-12056650D02*
X14306734Y-12028079D01*
X14306734Y-12028079D02*
X14316258Y-12009031D01*
X14316258Y-12009031D02*
X14325782Y-11980460D01*
X14325782Y-11980460D02*
X14335306Y-11932841D01*
X14335306Y-11932841D02*
X14335306Y-11894746D01*
X14335306Y-11894746D02*
X14325782Y-11847127D01*
X14325782Y-11847127D02*
X14316258Y-11818555D01*
X14316258Y-11818555D02*
X14306734Y-11799508D01*
X14306734Y-11799508D02*
X14287687Y-11770936D01*
X14287687Y-11770936D02*
X14278163Y-11761412D01*
X9403100Y-12296500D02*
X9503100Y-12196500D01*
X9403100Y-12096500D01*
X9303100Y-12196500D01*
X9403100Y-12296500D01*
X9849591Y-12154650D02*
X9849591Y-12287984D01*
X9801972Y-12078460D02*
X9754353Y-12221317D01*
X9754353Y-12221317D02*
X9878163Y-12221317D01*
X9954353Y-12268936D02*
X9963877Y-12278460D01*
X9963877Y-12278460D02*
X9954353Y-12287984D01*
X9954353Y-12287984D02*
X9944829Y-12278460D01*
X9944829Y-12278460D02*
X9954353Y-12268936D01*
X9954353Y-12268936D02*
X9954353Y-12287984D01*
X10030544Y-12087984D02*
X10154353Y-12087984D01*
X10154353Y-12087984D02*
X10087686Y-12164174D01*
X10087686Y-12164174D02*
X10116258Y-12164174D01*
X10116258Y-12164174D02*
X10135305Y-12173698D01*
X10135305Y-12173698D02*
X10144829Y-12183222D01*
X10144829Y-12183222D02*
X10154353Y-12202269D01*
X10154353Y-12202269D02*
X10154353Y-12249888D01*
X10154353Y-12249888D02*
X10144829Y-12268936D01*
X10144829Y-12268936D02*
X10135305Y-12278460D01*
X10135305Y-12278460D02*
X10116258Y-12287984D01*
X10116258Y-12287984D02*
X10059115Y-12287984D01*
X10059115Y-12287984D02*
X10040067Y-12278460D01*
X10040067Y-12278460D02*
X10030544Y-12268936D01*
X10278163Y-12087984D02*
X10297210Y-12087984D01*
X10297210Y-12087984D02*
X10316258Y-12097508D01*
X10316258Y-12097508D02*
X10325782Y-12107031D01*
X10325782Y-12107031D02*
X10335305Y-12126079D01*
X10335305Y-12126079D02*
X10344829Y-12164174D01*
X10344829Y-12164174D02*
X10344829Y-12211793D01*
X10344829Y-12211793D02*
X10335305Y-12249888D01*
X10335305Y-12249888D02*
X10325782Y-12268936D01*
X10325782Y-12268936D02*
X10316258Y-12278460D01*
X10316258Y-12278460D02*
X10297210Y-12287984D01*
X10297210Y-12287984D02*
X10278163Y-12287984D01*
X10278163Y-12287984D02*
X10259115Y-12278460D01*
X10259115Y-12278460D02*
X10249591Y-12268936D01*
X10249591Y-12268936D02*
X10240067Y-12249888D01*
X10240067Y-12249888D02*
X10230544Y-12211793D01*
X10230544Y-12211793D02*
X10230544Y-12164174D01*
X10230544Y-12164174D02*
X10240067Y-12126079D01*
X10240067Y-12126079D02*
X10249591Y-12107031D01*
X10249591Y-12107031D02*
X10259115Y-12097508D01*
X10259115Y-12097508D02*
X10278163Y-12087984D01*
X10468639Y-12087984D02*
X10487686Y-12087984D01*
X10487686Y-12087984D02*
X10506734Y-12097508D01*
X10506734Y-12097508D02*
X10516258Y-12107031D01*
X10516258Y-12107031D02*
X10525782Y-12126079D01*
X10525782Y-12126079D02*
X10535305Y-12164174D01*
X10535305Y-12164174D02*
X10535305Y-12211793D01*
X10535305Y-12211793D02*
X10525782Y-12249888D01*
X10525782Y-12249888D02*
X10516258Y-12268936D01*
X10516258Y-12268936D02*
X10506734Y-12278460D01*
X10506734Y-12278460D02*
X10487686Y-12287984D01*
X10487686Y-12287984D02*
X10468639Y-12287984D01*
X10468639Y-12287984D02*
X10449591Y-12278460D01*
X10449591Y-12278460D02*
X10440067Y-12268936D01*
X10440067Y-12268936D02*
X10430544Y-12249888D01*
X10430544Y-12249888D02*
X10421020Y-12211793D01*
X10421020Y-12211793D02*
X10421020Y-12164174D01*
X10421020Y-12164174D02*
X10430544Y-12126079D01*
X10430544Y-12126079D02*
X10440067Y-12107031D01*
X10440067Y-12107031D02*
X10449591Y-12097508D01*
X10449591Y-12097508D02*
X10468639Y-12087984D01*
X10621020Y-12287984D02*
X10621020Y-12154650D01*
X10621020Y-12173698D02*
X10630544Y-12164174D01*
X10630544Y-12164174D02*
X10649591Y-12154650D01*
X10649591Y-12154650D02*
X10678163Y-12154650D01*
X10678163Y-12154650D02*
X10697210Y-12164174D01*
X10697210Y-12164174D02*
X10706734Y-12183222D01*
X10706734Y-12183222D02*
X10706734Y-12287984D01*
X10706734Y-12183222D02*
X10716258Y-12164174D01*
X10716258Y-12164174D02*
X10735305Y-12154650D01*
X10735305Y-12154650D02*
X10763877Y-12154650D01*
X10763877Y-12154650D02*
X10782925Y-12164174D01*
X10782925Y-12164174D02*
X10792448Y-12183222D01*
X10792448Y-12183222D02*
X10792448Y-12287984D01*
X10887686Y-12287984D02*
X10887686Y-12154650D01*
X10887686Y-12173698D02*
X10897210Y-12164174D01*
X10897210Y-12164174D02*
X10916258Y-12154650D01*
X10916258Y-12154650D02*
X10944829Y-12154650D01*
X10944829Y-12154650D02*
X10963877Y-12164174D01*
X10963877Y-12164174D02*
X10973401Y-12183222D01*
X10973401Y-12183222D02*
X10973401Y-12287984D01*
X10973401Y-12183222D02*
X10982925Y-12164174D01*
X10982925Y-12164174D02*
X11001972Y-12154650D01*
X11001972Y-12154650D02*
X11030544Y-12154650D01*
X11030544Y-12154650D02*
X11049591Y-12164174D01*
X11049591Y-12164174D02*
X11059115Y-12183222D01*
X11059115Y-12183222D02*
X11059115Y-12287984D01*
X11449591Y-12078460D02*
X11278163Y-12335603D01*
X11706734Y-12087984D02*
X11725782Y-12087984D01*
X11725782Y-12087984D02*
X11744829Y-12097508D01*
X11744829Y-12097508D02*
X11754353Y-12107031D01*
X11754353Y-12107031D02*
X11763877Y-12126079D01*
X11763877Y-12126079D02*
X11773401Y-12164174D01*
X11773401Y-12164174D02*
X11773401Y-12211793D01*
X11773401Y-12211793D02*
X11763877Y-12249888D01*
X11763877Y-12249888D02*
X11754353Y-12268936D01*
X11754353Y-12268936D02*
X11744829Y-12278460D01*
X11744829Y-12278460D02*
X11725782Y-12287984D01*
X11725782Y-12287984D02*
X11706734Y-12287984D01*
X11706734Y-12287984D02*
X11687686Y-12278460D01*
X11687686Y-12278460D02*
X11678163Y-12268936D01*
X11678163Y-12268936D02*
X11668639Y-12249888D01*
X11668639Y-12249888D02*
X11659115Y-12211793D01*
X11659115Y-12211793D02*
X11659115Y-12164174D01*
X11659115Y-12164174D02*
X11668639Y-12126079D01*
X11668639Y-12126079D02*
X11678163Y-12107031D01*
X11678163Y-12107031D02*
X11687686Y-12097508D01*
X11687686Y-12097508D02*
X11706734Y-12087984D01*
X11859115Y-12268936D02*
X11868639Y-12278460D01*
X11868639Y-12278460D02*
X11859115Y-12287984D01*
X11859115Y-12287984D02*
X11849591Y-12278460D01*
X11849591Y-12278460D02*
X11859115Y-12268936D01*
X11859115Y-12268936D02*
X11859115Y-12287984D01*
X12059115Y-12287984D02*
X11944829Y-12287984D01*
X12001972Y-12287984D02*
X12001972Y-12087984D01*
X12001972Y-12087984D02*
X11982925Y-12116555D01*
X11982925Y-12116555D02*
X11963877Y-12135603D01*
X11963877Y-12135603D02*
X11944829Y-12145127D01*
X12230544Y-12087984D02*
X12192448Y-12087984D01*
X12192448Y-12087984D02*
X12173401Y-12097508D01*
X12173401Y-12097508D02*
X12163877Y-12107031D01*
X12163877Y-12107031D02*
X12144829Y-12135603D01*
X12144829Y-12135603D02*
X12135306Y-12173698D01*
X12135306Y-12173698D02*
X12135306Y-12249888D01*
X12135306Y-12249888D02*
X12144829Y-12268936D01*
X12144829Y-12268936D02*
X12154353Y-12278460D01*
X12154353Y-12278460D02*
X12173401Y-12287984D01*
X12173401Y-12287984D02*
X12211496Y-12287984D01*
X12211496Y-12287984D02*
X12230544Y-12278460D01*
X12230544Y-12278460D02*
X12240067Y-12268936D01*
X12240067Y-12268936D02*
X12249591Y-12249888D01*
X12249591Y-12249888D02*
X12249591Y-12202269D01*
X12249591Y-12202269D02*
X12240067Y-12183222D01*
X12240067Y-12183222D02*
X12230544Y-12173698D01*
X12230544Y-12173698D02*
X12211496Y-12164174D01*
X12211496Y-12164174D02*
X12173401Y-12164174D01*
X12173401Y-12164174D02*
X12154353Y-12173698D01*
X12154353Y-12173698D02*
X12144829Y-12183222D01*
X12144829Y-12183222D02*
X12135306Y-12202269D01*
X12344829Y-12287984D02*
X12382925Y-12287984D01*
X12382925Y-12287984D02*
X12401972Y-12278460D01*
X12401972Y-12278460D02*
X12411496Y-12268936D01*
X12411496Y-12268936D02*
X12430544Y-12240365D01*
X12430544Y-12240365D02*
X12440067Y-12202269D01*
X12440067Y-12202269D02*
X12440067Y-12126079D01*
X12440067Y-12126079D02*
X12430544Y-12107031D01*
X12430544Y-12107031D02*
X12421020Y-12097508D01*
X12421020Y-12097508D02*
X12401972Y-12087984D01*
X12401972Y-12087984D02*
X12363877Y-12087984D01*
X12363877Y-12087984D02*
X12344829Y-12097508D01*
X12344829Y-12097508D02*
X12335306Y-12107031D01*
X12335306Y-12107031D02*
X12325782Y-12126079D01*
X12325782Y-12126079D02*
X12325782Y-12173698D01*
X12325782Y-12173698D02*
X12335306Y-12192746D01*
X12335306Y-12192746D02*
X12344829Y-12202269D01*
X12344829Y-12202269D02*
X12363877Y-12211793D01*
X12363877Y-12211793D02*
X12401972Y-12211793D01*
X12401972Y-12211793D02*
X12421020Y-12202269D01*
X12421020Y-12202269D02*
X12430544Y-12192746D01*
X12430544Y-12192746D02*
X12440067Y-12173698D01*
X12506734Y-12087984D02*
X12630544Y-12087984D01*
X12630544Y-12087984D02*
X12563877Y-12164174D01*
X12563877Y-12164174D02*
X12592448Y-12164174D01*
X12592448Y-12164174D02*
X12611496Y-12173698D01*
X12611496Y-12173698D02*
X12621020Y-12183222D01*
X12621020Y-12183222D02*
X12630544Y-12202269D01*
X12630544Y-12202269D02*
X12630544Y-12249888D01*
X12630544Y-12249888D02*
X12621020Y-12268936D01*
X12621020Y-12268936D02*
X12611496Y-12278460D01*
X12611496Y-12278460D02*
X12592448Y-12287984D01*
X12592448Y-12287984D02*
X12535306Y-12287984D01*
X12535306Y-12287984D02*
X12516258Y-12278460D01*
X12516258Y-12278460D02*
X12506734Y-12268936D01*
X12706734Y-12087984D02*
X12706734Y-12126079D01*
X12782925Y-12087984D02*
X12782925Y-12126079D01*
X13078163Y-12364174D02*
X13068639Y-12354650D01*
X13068639Y-12354650D02*
X13049591Y-12326079D01*
X13049591Y-12326079D02*
X13040068Y-12307031D01*
X13040068Y-12307031D02*
X13030544Y-12278460D01*
X13030544Y-12278460D02*
X13021020Y-12230841D01*
X13021020Y-12230841D02*
X13021020Y-12192746D01*
X13021020Y-12192746D02*
X13030544Y-12145127D01*
X13030544Y-12145127D02*
X13040068Y-12116555D01*
X13040068Y-12116555D02*
X13049591Y-12097508D01*
X13049591Y-12097508D02*
X13068639Y-12068936D01*
X13068639Y-12068936D02*
X13078163Y-12059412D01*
X13240068Y-12154650D02*
X13240068Y-12287984D01*
X13192448Y-12078460D02*
X13144829Y-12221317D01*
X13144829Y-12221317D02*
X13268639Y-12221317D01*
X13497210Y-12287984D02*
X13497210Y-12087984D01*
X13582925Y-12287984D02*
X13582925Y-12183222D01*
X13582925Y-12183222D02*
X13573401Y-12164174D01*
X13573401Y-12164174D02*
X13554353Y-12154650D01*
X13554353Y-12154650D02*
X13525782Y-12154650D01*
X13525782Y-12154650D02*
X13506734Y-12164174D01*
X13506734Y-12164174D02*
X13497210Y-12173698D01*
X13706734Y-12287984D02*
X13687687Y-12278460D01*
X13687687Y-12278460D02*
X13678163Y-12268936D01*
X13678163Y-12268936D02*
X13668639Y-12249888D01*
X13668639Y-12249888D02*
X13668639Y-12192746D01*
X13668639Y-12192746D02*
X13678163Y-12173698D01*
X13678163Y-12173698D02*
X13687687Y-12164174D01*
X13687687Y-12164174D02*
X13706734Y-12154650D01*
X13706734Y-12154650D02*
X13735306Y-12154650D01*
X13735306Y-12154650D02*
X13754353Y-12164174D01*
X13754353Y-12164174D02*
X13763877Y-12173698D01*
X13763877Y-12173698D02*
X13773401Y-12192746D01*
X13773401Y-12192746D02*
X13773401Y-12249888D01*
X13773401Y-12249888D02*
X13763877Y-12268936D01*
X13763877Y-12268936D02*
X13754353Y-12278460D01*
X13754353Y-12278460D02*
X13735306Y-12287984D01*
X13735306Y-12287984D02*
X13706734Y-12287984D01*
X13887687Y-12287984D02*
X13868639Y-12278460D01*
X13868639Y-12278460D02*
X13859115Y-12259412D01*
X13859115Y-12259412D02*
X13859115Y-12087984D01*
X14040068Y-12278460D02*
X14021020Y-12287984D01*
X14021020Y-12287984D02*
X13982925Y-12287984D01*
X13982925Y-12287984D02*
X13963877Y-12278460D01*
X13963877Y-12278460D02*
X13954353Y-12259412D01*
X13954353Y-12259412D02*
X13954353Y-12183222D01*
X13954353Y-12183222D02*
X13963877Y-12164174D01*
X13963877Y-12164174D02*
X13982925Y-12154650D01*
X13982925Y-12154650D02*
X14021020Y-12154650D01*
X14021020Y-12154650D02*
X14040068Y-12164174D01*
X14040068Y-12164174D02*
X14049591Y-12183222D01*
X14049591Y-12183222D02*
X14049591Y-12202269D01*
X14049591Y-12202269D02*
X13954353Y-12221317D01*
X14125782Y-12278460D02*
X14144830Y-12287984D01*
X14144830Y-12287984D02*
X14182925Y-12287984D01*
X14182925Y-12287984D02*
X14201972Y-12278460D01*
X14201972Y-12278460D02*
X14211496Y-12259412D01*
X14211496Y-12259412D02*
X14211496Y-12249888D01*
X14211496Y-12249888D02*
X14201972Y-12230841D01*
X14201972Y-12230841D02*
X14182925Y-12221317D01*
X14182925Y-12221317D02*
X14154353Y-12221317D01*
X14154353Y-12221317D02*
X14135306Y-12211793D01*
X14135306Y-12211793D02*
X14125782Y-12192746D01*
X14125782Y-12192746D02*
X14125782Y-12183222D01*
X14125782Y-12183222D02*
X14135306Y-12164174D01*
X14135306Y-12164174D02*
X14154353Y-12154650D01*
X14154353Y-12154650D02*
X14182925Y-12154650D01*
X14182925Y-12154650D02*
X14201972Y-12164174D01*
X14278163Y-12364174D02*
X14287687Y-12354650D01*
X14287687Y-12354650D02*
X14306734Y-12326079D01*
X14306734Y-12326079D02*
X14316258Y-12307031D01*
X14316258Y-12307031D02*
X14325782Y-12278460D01*
X14325782Y-12278460D02*
X14335306Y-12230841D01*
X14335306Y-12230841D02*
X14335306Y-12192746D01*
X14335306Y-12192746D02*
X14325782Y-12145127D01*
X14325782Y-12145127D02*
X14316258Y-12116555D01*
X14316258Y-12116555D02*
X14306734Y-12097508D01*
X14306734Y-12097508D02*
X14287687Y-12068936D01*
X14287687Y-12068936D02*
X14278163Y-12059412D01*
M02*
