%TF.GenerationSoftware,KiCad,Pcbnew,9.0.0-1.fc40*%
%TF.CreationDate,2025-03-13T13:33:29-07:00*%
%TF.ProjectId,HearingAidBattery-Holder,48656172-696e-4674-9169-644261747465,1.0*%
%TF.SameCoordinates,Original*%
%TF.FileFunction,Copper,L2,Bot*%
%TF.FilePolarity,Positive*%
%FSLAX46Y46*%
G04 Gerber Fmt 4.6, Leading zero omitted, Abs format (unit mm)*
G04 Created by KiCad (PCBNEW 9.0.0-1.fc40) date 2025-03-13 13:33:29*
%MOMM*%
%LPD*%
G01*
G04 APERTURE LIST*
%TA.AperFunction,ComponentPad*%
%ADD10C,2.670000*%
%TD*%
%TA.AperFunction,ComponentPad*%
%ADD11C,0.900000*%
%TD*%
%TA.AperFunction,ComponentPad*%
%ADD12C,8.600000*%
%TD*%
%TA.AperFunction,ComponentPad*%
%ADD13C,1.790000*%
%TD*%
%TA.AperFunction,ViaPad*%
%ADD14C,1.000000*%
%TD*%
%TA.AperFunction,Conductor*%
%ADD15C,2.000000*%
%TD*%
G04 APERTURE END LIST*
D10*
%TO.P,BT1,1,+*%
%TO.N,Net-(BT1-+)*%
X134177790Y-75315581D03*
X134177790Y-88525581D03*
%TD*%
D11*
%TO.P,H4,1,1*%
%TO.N,Net-(BT1--)*%
X117425000Y-97795581D03*
X118369581Y-95515162D03*
X118369581Y-100076000D03*
X120650000Y-94570581D03*
D12*
X120650000Y-97795581D03*
D11*
X120650000Y-101020581D03*
X122930419Y-95515162D03*
X122930419Y-100076000D03*
X123875000Y-97795581D03*
%TD*%
%TO.P,H3,1,1*%
%TO.N,Net-(BT1--)*%
X98375000Y-97795581D03*
X99319581Y-95515162D03*
X99319581Y-100076000D03*
X101600000Y-94570581D03*
D12*
X101600000Y-97795581D03*
D11*
X101600000Y-101020581D03*
X103880419Y-95515162D03*
X103880419Y-100076000D03*
X104825000Y-97795581D03*
%TD*%
D13*
%TO.P,BT2,1,+*%
%TO.N,Net-(BT1-+)*%
X136082790Y-93519419D03*
X136082790Y-102049419D03*
%TD*%
D11*
%TO.P,H2,1,1*%
%TO.N,Net-(BT1-+)*%
X98375000Y-78745581D03*
X99319581Y-76465162D03*
X99319581Y-81026000D03*
X101600000Y-75520581D03*
D12*
X101600000Y-78745581D03*
D11*
X101600000Y-81970581D03*
X103880419Y-76465162D03*
X103880419Y-81026000D03*
X104825000Y-78745581D03*
%TD*%
%TO.P,H1,1,1*%
%TO.N,Net-(BT1-+)*%
X117425000Y-78745581D03*
X118369581Y-76465162D03*
X118369581Y-81026000D03*
X120650000Y-75520581D03*
D12*
X120650000Y-78745581D03*
D11*
X120650000Y-81970581D03*
X122930419Y-76465162D03*
X122930419Y-81026000D03*
X123875000Y-78745581D03*
%TD*%
D14*
%TO.N,Net-(BT1--)*%
X135382000Y-81915000D03*
X137160000Y-97790000D03*
X109982000Y-97790000D03*
X112268000Y-97790000D03*
X135128000Y-97790000D03*
X133096000Y-81915000D03*
X136144000Y-97790000D03*
X111125000Y-97790000D03*
X134177790Y-81920581D03*
%TD*%
D15*
%TO.N,Net-(BT1--)*%
X131826000Y-97790000D02*
X137160000Y-97790000D01*
X135382000Y-81915000D02*
X134183371Y-81915000D01*
X134183371Y-81915000D02*
X134177790Y-81920581D01*
X134177790Y-81920581D02*
X130931419Y-81920581D01*
X130931419Y-81920581D02*
X127762000Y-85090000D01*
X127762000Y-85090000D02*
X127762000Y-88138000D01*
X111125000Y-88265000D02*
X111252000Y-88138000D01*
X127762000Y-93726000D02*
X127762000Y-88138000D01*
X111125000Y-97790000D02*
X117419419Y-97790000D01*
X111252000Y-88138000D02*
X127762000Y-88138000D01*
X111125000Y-97790000D02*
X111125000Y-88265000D01*
X117419419Y-97790000D02*
X117425000Y-97795581D01*
X131826000Y-97790000D02*
X127762000Y-93726000D01*
X104830581Y-97790000D02*
X104825000Y-97795581D01*
X111119419Y-97795581D02*
X111125000Y-97790000D01*
X104825000Y-97795581D02*
X111119419Y-97795581D01*
%TD*%
%TA.AperFunction,NonConductor*%
G36*
X140158539Y-68520185D02*
G01*
X140204294Y-68572989D01*
X140215500Y-68624500D01*
X140215500Y-104015500D01*
X140195815Y-104082539D01*
X140143011Y-104128294D01*
X140091500Y-104139500D01*
X95680500Y-104139500D01*
X95613461Y-104119815D01*
X95567706Y-104067011D01*
X95556500Y-104015500D01*
X95556500Y-97585983D01*
X96799500Y-97585983D01*
X96799500Y-98005178D01*
X96836035Y-98422771D01*
X96836035Y-98422775D01*
X96908824Y-98835579D01*
X96908828Y-98835596D01*
X97017316Y-99240483D01*
X97017319Y-99240493D01*
X97017320Y-99240494D01*
X97160691Y-99634403D01*
X97160694Y-99634410D01*
X97160695Y-99634412D01*
X97160698Y-99634420D01*
X97337843Y-100014307D01*
X97337848Y-100014317D01*
X97547443Y-100377345D01*
X97547447Y-100377351D01*
X97547454Y-100377362D01*
X97787879Y-100720725D01*
X97901291Y-100855883D01*
X98057329Y-101041841D01*
X98353740Y-101338252D01*
X98487255Y-101450285D01*
X98674855Y-101607701D01*
X99018218Y-101848126D01*
X99018225Y-101848130D01*
X99018236Y-101848138D01*
X99381264Y-102057733D01*
X99381273Y-102057737D01*
X99761160Y-102234882D01*
X99761164Y-102234883D01*
X99761178Y-102234890D01*
X100155087Y-102378261D01*
X100155093Y-102378262D01*
X100155097Y-102378264D01*
X100265359Y-102407808D01*
X100559992Y-102486755D01*
X100972812Y-102559546D01*
X101390404Y-102596080D01*
X101390405Y-102596081D01*
X101390406Y-102596081D01*
X101809595Y-102596081D01*
X101809595Y-102596080D01*
X102227188Y-102559546D01*
X102640008Y-102486755D01*
X103044913Y-102378261D01*
X103438822Y-102234890D01*
X103818736Y-102057733D01*
X104181764Y-101848138D01*
X104525143Y-101607702D01*
X104846260Y-101338252D01*
X105142671Y-101041841D01*
X105412121Y-100720724D01*
X105652557Y-100377345D01*
X105862152Y-100014317D01*
X106039309Y-99634403D01*
X106132752Y-99377669D01*
X106174179Y-99321406D01*
X106239447Y-99296471D01*
X106249274Y-99296081D01*
X111237511Y-99296081D01*
X111263108Y-99292027D01*
X111282505Y-99290500D01*
X115998695Y-99290500D01*
X116065734Y-99310185D01*
X116111489Y-99362989D01*
X116115217Y-99372090D01*
X116210688Y-99634398D01*
X116387843Y-100014307D01*
X116387848Y-100014317D01*
X116597443Y-100377345D01*
X116597447Y-100377351D01*
X116597454Y-100377362D01*
X116837879Y-100720725D01*
X116951291Y-100855883D01*
X117107329Y-101041841D01*
X117403740Y-101338252D01*
X117537255Y-101450285D01*
X117724855Y-101607701D01*
X118068218Y-101848126D01*
X118068225Y-101848130D01*
X118068236Y-101848138D01*
X118431264Y-102057733D01*
X118431273Y-102057737D01*
X118811160Y-102234882D01*
X118811164Y-102234883D01*
X118811178Y-102234890D01*
X119205087Y-102378261D01*
X119205093Y-102378262D01*
X119205097Y-102378264D01*
X119315359Y-102407808D01*
X119609992Y-102486755D01*
X120022812Y-102559546D01*
X120440404Y-102596080D01*
X120440405Y-102596081D01*
X120440406Y-102596081D01*
X120859595Y-102596081D01*
X120859595Y-102596080D01*
X121277188Y-102559546D01*
X121690008Y-102486755D01*
X122094913Y-102378261D01*
X122488822Y-102234890D01*
X122868736Y-102057733D01*
X123073363Y-101939591D01*
X134687290Y-101939591D01*
X134687290Y-102159247D01*
X134721652Y-102376199D01*
X134781225Y-102559546D01*
X134789531Y-102585107D01*
X134889254Y-102780823D01*
X135018356Y-102958520D01*
X135173688Y-103113852D01*
X135339971Y-103234661D01*
X135351389Y-103242957D01*
X135547104Y-103342679D01*
X135756010Y-103410557D01*
X135972962Y-103444919D01*
X135972963Y-103444919D01*
X136192617Y-103444919D01*
X136192618Y-103444919D01*
X136409570Y-103410557D01*
X136618476Y-103342679D01*
X136814191Y-103242957D01*
X136913964Y-103170468D01*
X136991891Y-103113852D01*
X136991893Y-103113849D01*
X136991897Y-103113847D01*
X137147218Y-102958526D01*
X137147220Y-102958522D01*
X137147223Y-102958520D01*
X137203839Y-102880593D01*
X137276328Y-102780820D01*
X137376050Y-102585105D01*
X137443928Y-102376199D01*
X137478290Y-102159247D01*
X137478290Y-101939591D01*
X137443928Y-101722639D01*
X137376050Y-101513733D01*
X137276328Y-101318018D01*
X137268032Y-101306600D01*
X137147223Y-101140317D01*
X136991891Y-100984985D01*
X136814194Y-100855883D01*
X136814193Y-100855882D01*
X136814191Y-100855881D01*
X136618476Y-100756159D01*
X136409570Y-100688281D01*
X136409568Y-100688280D01*
X136409567Y-100688280D01*
X136242910Y-100661884D01*
X136192618Y-100653919D01*
X135972962Y-100653919D01*
X135922669Y-100661884D01*
X135756013Y-100688280D01*
X135547101Y-100756160D01*
X135351385Y-100855883D01*
X135173688Y-100984985D01*
X135018356Y-101140317D01*
X134889254Y-101318014D01*
X134789531Y-101513730D01*
X134721651Y-101722642D01*
X134701775Y-101848138D01*
X134687290Y-101939591D01*
X123073363Y-101939591D01*
X123231764Y-101848138D01*
X123575143Y-101607702D01*
X123896260Y-101338252D01*
X124192671Y-101041841D01*
X124462121Y-100720724D01*
X124702557Y-100377345D01*
X124912152Y-100014317D01*
X125089309Y-99634403D01*
X125232680Y-99240494D01*
X125341174Y-98835589D01*
X125413965Y-98422769D01*
X125450500Y-98005175D01*
X125450500Y-97585987D01*
X125413965Y-97168393D01*
X125341174Y-96755573D01*
X125232680Y-96350668D01*
X125089309Y-95956759D01*
X124912152Y-95576845D01*
X124702557Y-95213817D01*
X124702549Y-95213806D01*
X124702545Y-95213799D01*
X124462120Y-94870436D01*
X124221646Y-94583852D01*
X124192671Y-94549321D01*
X123896260Y-94252910D01*
X123687058Y-94077368D01*
X123575144Y-93983460D01*
X123231781Y-93743035D01*
X123231770Y-93743028D01*
X123231764Y-93743024D01*
X123034697Y-93629247D01*
X122868742Y-93533432D01*
X122868726Y-93533424D01*
X122488839Y-93356279D01*
X122488831Y-93356276D01*
X122488829Y-93356275D01*
X122488822Y-93356272D01*
X122094913Y-93212901D01*
X122094912Y-93212900D01*
X122094902Y-93212897D01*
X121690015Y-93104409D01*
X121690018Y-93104409D01*
X121690008Y-93104407D01*
X121690002Y-93104405D01*
X121689998Y-93104405D01*
X121277192Y-93031616D01*
X120859597Y-92995081D01*
X120859594Y-92995081D01*
X120440406Y-92995081D01*
X120440402Y-92995081D01*
X120022809Y-93031616D01*
X120022805Y-93031616D01*
X119610001Y-93104405D01*
X119609984Y-93104409D01*
X119205097Y-93212897D01*
X119008132Y-93284586D01*
X118811178Y-93356272D01*
X118811174Y-93356273D01*
X118811168Y-93356276D01*
X118811160Y-93356279D01*
X118431273Y-93533424D01*
X118431257Y-93533432D01*
X118068244Y-93743019D01*
X118068218Y-93743035D01*
X117724855Y-93983460D01*
X117403737Y-94252912D01*
X117107331Y-94549318D01*
X116837879Y-94870436D01*
X116597454Y-95213799D01*
X116597438Y-95213825D01*
X116387851Y-95576838D01*
X116387843Y-95576854D01*
X116210698Y-95956741D01*
X116210695Y-95956749D01*
X116119279Y-96207911D01*
X116077852Y-96264175D01*
X116012584Y-96289110D01*
X116002757Y-96289500D01*
X112749500Y-96289500D01*
X112682461Y-96269815D01*
X112636706Y-96217011D01*
X112625500Y-96165500D01*
X112625500Y-89762500D01*
X112645185Y-89695461D01*
X112697989Y-89649706D01*
X112749500Y-89638500D01*
X126137500Y-89638500D01*
X126204539Y-89658185D01*
X126250294Y-89710989D01*
X126261500Y-89762500D01*
X126261500Y-93844097D01*
X126298446Y-94077368D01*
X126371433Y-94301996D01*
X126435904Y-94428526D01*
X126478657Y-94512434D01*
X126617483Y-94703510D01*
X130848490Y-98934517D01*
X131039567Y-99073343D01*
X131138991Y-99124002D01*
X131250003Y-99180566D01*
X131250005Y-99180566D01*
X131250008Y-99180568D01*
X131370412Y-99219689D01*
X131474631Y-99253553D01*
X131707903Y-99290500D01*
X131707908Y-99290500D01*
X137278097Y-99290500D01*
X137511368Y-99253553D01*
X137551593Y-99240483D01*
X137735992Y-99180568D01*
X137946433Y-99073343D01*
X138137510Y-98934517D01*
X138304517Y-98767510D01*
X138443343Y-98576433D01*
X138550568Y-98365992D01*
X138623553Y-98141368D01*
X138660500Y-97908097D01*
X138660500Y-97671902D01*
X138623553Y-97438631D01*
X138550566Y-97214003D01*
X138443342Y-97003566D01*
X138304517Y-96812490D01*
X138137510Y-96645483D01*
X137946433Y-96506657D01*
X137735996Y-96399433D01*
X137511368Y-96326446D01*
X137278097Y-96289500D01*
X137278092Y-96289500D01*
X132498889Y-96289500D01*
X132431850Y-96269815D01*
X132411208Y-96253181D01*
X129567618Y-93409591D01*
X134687290Y-93409591D01*
X134687290Y-93629246D01*
X134721651Y-93846195D01*
X134789531Y-94055107D01*
X134889254Y-94250823D01*
X135018356Y-94428520D01*
X135173688Y-94583852D01*
X135338386Y-94703510D01*
X135351389Y-94712957D01*
X135547104Y-94812679D01*
X135756010Y-94880557D01*
X135972962Y-94914919D01*
X135972963Y-94914919D01*
X136192617Y-94914919D01*
X136192618Y-94914919D01*
X136409570Y-94880557D01*
X136618476Y-94812679D01*
X136814191Y-94712957D01*
X136913964Y-94640468D01*
X136991891Y-94583852D01*
X136991893Y-94583849D01*
X136991897Y-94583847D01*
X137147218Y-94428526D01*
X137147220Y-94428522D01*
X137147223Y-94428520D01*
X137203839Y-94350593D01*
X137276328Y-94250820D01*
X137376050Y-94055105D01*
X137443928Y-93846199D01*
X137478290Y-93629247D01*
X137478290Y-93409591D01*
X137443928Y-93192639D01*
X137376050Y-92983733D01*
X137276328Y-92788018D01*
X137268032Y-92776600D01*
X137147223Y-92610317D01*
X136991891Y-92454985D01*
X136814194Y-92325883D01*
X136814193Y-92325882D01*
X136814191Y-92325881D01*
X136618476Y-92226159D01*
X136409570Y-92158281D01*
X136409568Y-92158280D01*
X136409567Y-92158280D01*
X136242910Y-92131884D01*
X136192618Y-92123919D01*
X135972962Y-92123919D01*
X135922669Y-92131884D01*
X135756013Y-92158280D01*
X135547101Y-92226160D01*
X135351385Y-92325883D01*
X135173688Y-92454985D01*
X135018356Y-92610317D01*
X134889254Y-92788014D01*
X134789531Y-92983730D01*
X134721651Y-93192642D01*
X134687290Y-93409591D01*
X129567618Y-93409591D01*
X129298819Y-93140792D01*
X129265334Y-93079469D01*
X129262500Y-93053111D01*
X129262500Y-88405282D01*
X132342290Y-88405282D01*
X132342290Y-88645879D01*
X132342291Y-88645895D01*
X132373695Y-88884434D01*
X132435973Y-89116856D01*
X132528043Y-89339134D01*
X132528051Y-89339151D01*
X132648348Y-89547510D01*
X132648359Y-89547526D01*
X132794825Y-89738405D01*
X132794831Y-89738412D01*
X132964958Y-89908539D01*
X132964964Y-89908544D01*
X133155853Y-90055018D01*
X133155860Y-90055022D01*
X133364219Y-90175319D01*
X133364224Y-90175321D01*
X133364227Y-90175323D01*
X133364231Y-90175324D01*
X133364236Y-90175327D01*
X133586514Y-90267397D01*
X133586516Y-90267397D01*
X133586522Y-90267400D01*
X133818933Y-90329675D01*
X134057485Y-90361081D01*
X134057492Y-90361081D01*
X134298088Y-90361081D01*
X134298095Y-90361081D01*
X134536647Y-90329675D01*
X134769058Y-90267400D01*
X134991353Y-90175323D01*
X135199727Y-90055018D01*
X135390616Y-89908544D01*
X135560753Y-89738407D01*
X135707227Y-89547518D01*
X135827532Y-89339144D01*
X135919609Y-89116849D01*
X135981884Y-88884438D01*
X136013290Y-88645886D01*
X136013290Y-88405276D01*
X135981884Y-88166724D01*
X135919609Y-87934313D01*
X135911042Y-87913631D01*
X135827536Y-87712027D01*
X135827528Y-87712010D01*
X135707231Y-87503651D01*
X135707227Y-87503644D01*
X135560753Y-87312755D01*
X135560748Y-87312749D01*
X135390621Y-87142622D01*
X135390614Y-87142616D01*
X135199735Y-86996150D01*
X135199733Y-86996148D01*
X135199727Y-86996144D01*
X135199722Y-86996141D01*
X135199719Y-86996139D01*
X134991360Y-86875842D01*
X134991343Y-86875834D01*
X134769065Y-86783764D01*
X134633477Y-86747433D01*
X134536647Y-86721487D01*
X134536646Y-86721486D01*
X134536643Y-86721486D01*
X134298104Y-86690082D01*
X134298101Y-86690081D01*
X134298095Y-86690081D01*
X134057485Y-86690081D01*
X134057479Y-86690081D01*
X134057475Y-86690082D01*
X133818936Y-86721486D01*
X133586514Y-86783764D01*
X133364236Y-86875834D01*
X133364219Y-86875842D01*
X133155860Y-86996139D01*
X133155844Y-86996150D01*
X132964965Y-87142616D01*
X132964958Y-87142622D01*
X132794831Y-87312749D01*
X132794825Y-87312756D01*
X132648359Y-87503635D01*
X132648348Y-87503651D01*
X132528051Y-87712010D01*
X132528043Y-87712027D01*
X132435973Y-87934305D01*
X132373695Y-88166727D01*
X132342291Y-88405266D01*
X132342290Y-88405282D01*
X129262500Y-88405282D01*
X129262500Y-85762889D01*
X129282185Y-85695850D01*
X129298819Y-85675208D01*
X131516627Y-83457400D01*
X131577950Y-83423915D01*
X131604308Y-83421081D01*
X134295882Y-83421081D01*
X134321479Y-83417027D01*
X134340876Y-83415500D01*
X135500097Y-83415500D01*
X135733368Y-83378553D01*
X135957992Y-83305568D01*
X136168433Y-83198343D01*
X136359510Y-83059517D01*
X136526517Y-82892510D01*
X136665343Y-82701433D01*
X136772568Y-82490992D01*
X136845553Y-82266368D01*
X136882500Y-82033097D01*
X136882500Y-81796902D01*
X136845553Y-81563631D01*
X136772566Y-81339003D01*
X136665342Y-81128566D01*
X136526517Y-80937490D01*
X136359510Y-80770483D01*
X136168433Y-80631657D01*
X135957996Y-80524433D01*
X135733368Y-80451446D01*
X135500097Y-80414500D01*
X135500092Y-80414500D01*
X134301463Y-80414500D01*
X134065279Y-80414500D01*
X134039682Y-80418554D01*
X134020285Y-80420081D01*
X130813322Y-80420081D01*
X130580050Y-80457027D01*
X130355422Y-80530014D01*
X130144984Y-80637238D01*
X129953907Y-80776065D01*
X126617484Y-84112488D01*
X126478657Y-84303565D01*
X126371433Y-84514003D01*
X126298446Y-84738631D01*
X126261500Y-84971902D01*
X126261500Y-86513500D01*
X126241815Y-86580539D01*
X126189011Y-86626294D01*
X126137500Y-86637500D01*
X111133903Y-86637500D01*
X110900634Y-86674446D01*
X110676005Y-86747433D01*
X110465565Y-86854657D01*
X110274488Y-86993484D01*
X109980484Y-87287488D01*
X109841657Y-87478565D01*
X109769730Y-87619731D01*
X109734434Y-87689003D01*
X109661446Y-87913631D01*
X109624500Y-88146902D01*
X109624500Y-96171081D01*
X109604815Y-96238120D01*
X109552011Y-96283875D01*
X109500500Y-96295081D01*
X106249274Y-96295081D01*
X106182235Y-96275396D01*
X106136480Y-96222592D01*
X106132752Y-96213492D01*
X106130721Y-96207911D01*
X106039309Y-95956759D01*
X105862152Y-95576845D01*
X105652557Y-95213817D01*
X105652549Y-95213806D01*
X105652545Y-95213799D01*
X105412120Y-94870436D01*
X105171646Y-94583852D01*
X105142671Y-94549321D01*
X104846260Y-94252910D01*
X104637058Y-94077368D01*
X104525144Y-93983460D01*
X104181781Y-93743035D01*
X104181770Y-93743028D01*
X104181764Y-93743024D01*
X103984697Y-93629247D01*
X103818742Y-93533432D01*
X103818726Y-93533424D01*
X103438839Y-93356279D01*
X103438831Y-93356276D01*
X103438829Y-93356275D01*
X103438822Y-93356272D01*
X103044913Y-93212901D01*
X103044912Y-93212900D01*
X103044902Y-93212897D01*
X102640015Y-93104409D01*
X102640018Y-93104409D01*
X102640008Y-93104407D01*
X102640002Y-93104405D01*
X102639998Y-93104405D01*
X102227192Y-93031616D01*
X101809597Y-92995081D01*
X101809594Y-92995081D01*
X101390406Y-92995081D01*
X101390402Y-92995081D01*
X100972809Y-93031616D01*
X100972805Y-93031616D01*
X100560001Y-93104405D01*
X100559984Y-93104409D01*
X100155097Y-93212897D01*
X99958132Y-93284586D01*
X99761178Y-93356272D01*
X99761174Y-93356273D01*
X99761168Y-93356276D01*
X99761160Y-93356279D01*
X99381273Y-93533424D01*
X99381257Y-93533432D01*
X99018244Y-93743019D01*
X99018218Y-93743035D01*
X98674855Y-93983460D01*
X98353737Y-94252912D01*
X98057331Y-94549318D01*
X97787879Y-94870436D01*
X97547454Y-95213799D01*
X97547438Y-95213825D01*
X97337851Y-95576838D01*
X97337843Y-95576854D01*
X97160698Y-95956741D01*
X97160695Y-95956749D01*
X97017316Y-96350678D01*
X96908828Y-96755565D01*
X96908824Y-96755582D01*
X96836035Y-97168386D01*
X96836035Y-97168390D01*
X96799500Y-97585983D01*
X95556500Y-97585983D01*
X95556500Y-78535983D01*
X96799500Y-78535983D01*
X96799500Y-78955178D01*
X96836035Y-79372771D01*
X96836035Y-79372775D01*
X96908824Y-79785579D01*
X96908828Y-79785596D01*
X97017316Y-80190483D01*
X97017319Y-80190493D01*
X97017320Y-80190494D01*
X97160691Y-80584403D01*
X97160694Y-80584410D01*
X97160695Y-80584412D01*
X97160698Y-80584420D01*
X97337843Y-80964307D01*
X97337851Y-80964323D01*
X97432678Y-81128567D01*
X97547443Y-81327345D01*
X97547447Y-81327351D01*
X97547454Y-81327362D01*
X97787879Y-81670725D01*
X97893755Y-81796902D01*
X98057329Y-81991841D01*
X98353740Y-82288252D01*
X98487255Y-82400285D01*
X98674855Y-82557701D01*
X99018218Y-82798126D01*
X99018225Y-82798130D01*
X99018236Y-82798138D01*
X99381264Y-83007733D01*
X99381273Y-83007737D01*
X99761160Y-83184882D01*
X99761164Y-83184883D01*
X99761178Y-83184890D01*
X100155087Y-83328261D01*
X100155093Y-83328262D01*
X100155097Y-83328264D01*
X100265359Y-83357808D01*
X100559992Y-83436755D01*
X100972812Y-83509546D01*
X101390404Y-83546080D01*
X101390405Y-83546081D01*
X101390406Y-83546081D01*
X101809595Y-83546081D01*
X101809595Y-83546080D01*
X102227188Y-83509546D01*
X102640008Y-83436755D01*
X103044913Y-83328261D01*
X103438822Y-83184890D01*
X103818736Y-83007733D01*
X104181764Y-82798138D01*
X104525143Y-82557702D01*
X104846260Y-82288252D01*
X105142671Y-81991841D01*
X105412121Y-81670724D01*
X105652557Y-81327345D01*
X105862152Y-80964317D01*
X106039309Y-80584403D01*
X106182680Y-80190494D01*
X106291174Y-79785589D01*
X106363965Y-79372769D01*
X106400500Y-78955175D01*
X106400500Y-78535987D01*
X106400500Y-78535983D01*
X115849500Y-78535983D01*
X115849500Y-78955178D01*
X115886035Y-79372771D01*
X115886035Y-79372775D01*
X115958824Y-79785579D01*
X115958828Y-79785596D01*
X116067316Y-80190483D01*
X116067319Y-80190493D01*
X116067320Y-80190494D01*
X116210691Y-80584403D01*
X116210694Y-80584410D01*
X116210695Y-80584412D01*
X116210698Y-80584420D01*
X116387843Y-80964307D01*
X116387851Y-80964323D01*
X116482678Y-81128567D01*
X116597443Y-81327345D01*
X116597447Y-81327351D01*
X116597454Y-81327362D01*
X116837879Y-81670725D01*
X116943755Y-81796902D01*
X117107329Y-81991841D01*
X117403740Y-82288252D01*
X117537255Y-82400285D01*
X117724855Y-82557701D01*
X118068218Y-82798126D01*
X118068225Y-82798130D01*
X118068236Y-82798138D01*
X118431264Y-83007733D01*
X118431273Y-83007737D01*
X118811160Y-83184882D01*
X118811164Y-83184883D01*
X118811178Y-83184890D01*
X119205087Y-83328261D01*
X119205093Y-83328262D01*
X119205097Y-83328264D01*
X119315359Y-83357808D01*
X119609992Y-83436755D01*
X120022812Y-83509546D01*
X120440404Y-83546080D01*
X120440405Y-83546081D01*
X120440406Y-83546081D01*
X120859595Y-83546081D01*
X120859595Y-83546080D01*
X121277188Y-83509546D01*
X121690008Y-83436755D01*
X122094913Y-83328261D01*
X122488822Y-83184890D01*
X122868736Y-83007733D01*
X123231764Y-82798138D01*
X123575143Y-82557702D01*
X123896260Y-82288252D01*
X124192671Y-81991841D01*
X124462121Y-81670724D01*
X124702557Y-81327345D01*
X124912152Y-80964317D01*
X125089309Y-80584403D01*
X125232680Y-80190494D01*
X125341174Y-79785589D01*
X125413965Y-79372769D01*
X125450500Y-78955175D01*
X125450500Y-78535987D01*
X125413965Y-78118393D01*
X125341174Y-77705573D01*
X125232680Y-77300668D01*
X125089309Y-76906759D01*
X125060515Y-76845011D01*
X124912156Y-76526854D01*
X124912148Y-76526838D01*
X124802848Y-76337526D01*
X124702557Y-76163817D01*
X124702549Y-76163806D01*
X124702545Y-76163799D01*
X124462120Y-75820436D01*
X124192668Y-75499318D01*
X123896262Y-75202912D01*
X123887162Y-75195276D01*
X132342290Y-75195276D01*
X132342290Y-75435886D01*
X132373696Y-75674438D01*
X132412816Y-75820436D01*
X132435973Y-75906856D01*
X132528043Y-76129134D01*
X132528051Y-76129151D01*
X132648348Y-76337510D01*
X132648359Y-76337526D01*
X132794825Y-76528405D01*
X132794831Y-76528412D01*
X132964958Y-76698539D01*
X132964964Y-76698544D01*
X133155853Y-76845018D01*
X133155860Y-76845022D01*
X133364219Y-76965319D01*
X133364224Y-76965321D01*
X133364227Y-76965323D01*
X133364231Y-76965324D01*
X133364236Y-76965327D01*
X133586514Y-77057397D01*
X133586516Y-77057397D01*
X133586522Y-77057400D01*
X133818933Y-77119675D01*
X134057485Y-77151081D01*
X134057492Y-77151081D01*
X134298088Y-77151081D01*
X134298095Y-77151081D01*
X134536647Y-77119675D01*
X134769058Y-77057400D01*
X134991353Y-76965323D01*
X135199727Y-76845018D01*
X135390616Y-76698544D01*
X135560753Y-76528407D01*
X135707227Y-76337518D01*
X135827532Y-76129144D01*
X135919609Y-75906849D01*
X135981884Y-75674438D01*
X136013290Y-75435886D01*
X136013290Y-75195276D01*
X135981884Y-74956724D01*
X135919609Y-74724313D01*
X135906653Y-74693035D01*
X135827536Y-74502027D01*
X135827528Y-74502010D01*
X135707231Y-74293651D01*
X135707227Y-74293644D01*
X135606905Y-74162901D01*
X135560754Y-74102756D01*
X135560748Y-74102749D01*
X135390621Y-73932622D01*
X135390614Y-73932616D01*
X135199735Y-73786150D01*
X135199733Y-73786148D01*
X135199727Y-73786144D01*
X135199722Y-73786141D01*
X135199719Y-73786139D01*
X134991360Y-73665842D01*
X134991343Y-73665834D01*
X134769065Y-73573764D01*
X134536643Y-73511486D01*
X134298104Y-73480082D01*
X134298101Y-73480081D01*
X134298095Y-73480081D01*
X134057485Y-73480081D01*
X134057479Y-73480081D01*
X134057475Y-73480082D01*
X133818936Y-73511486D01*
X133586514Y-73573764D01*
X133364236Y-73665834D01*
X133364219Y-73665842D01*
X133155860Y-73786139D01*
X133155844Y-73786150D01*
X132964965Y-73932616D01*
X132964958Y-73932622D01*
X132794831Y-74102749D01*
X132794825Y-74102756D01*
X132648359Y-74293635D01*
X132648348Y-74293651D01*
X132528051Y-74502010D01*
X132528043Y-74502027D01*
X132435973Y-74724305D01*
X132373695Y-74956727D01*
X132342291Y-75195266D01*
X132342290Y-75195276D01*
X123887162Y-75195276D01*
X123575144Y-74933460D01*
X123231781Y-74693035D01*
X123231770Y-74693028D01*
X123231764Y-74693024D01*
X122900949Y-74502027D01*
X122868742Y-74483432D01*
X122868726Y-74483424D01*
X122488839Y-74306279D01*
X122488831Y-74306276D01*
X122488829Y-74306275D01*
X122488822Y-74306272D01*
X122094913Y-74162901D01*
X122094912Y-74162900D01*
X122094902Y-74162897D01*
X121690015Y-74054409D01*
X121690018Y-74054409D01*
X121690008Y-74054407D01*
X121690002Y-74054405D01*
X121689998Y-74054405D01*
X121277192Y-73981616D01*
X120859597Y-73945081D01*
X120859594Y-73945081D01*
X120440406Y-73945081D01*
X120440402Y-73945081D01*
X120022809Y-73981616D01*
X120022805Y-73981616D01*
X119610001Y-74054405D01*
X119609984Y-74054409D01*
X119205097Y-74162897D01*
X119008132Y-74234586D01*
X118811178Y-74306272D01*
X118811174Y-74306273D01*
X118811168Y-74306276D01*
X118811160Y-74306279D01*
X118431273Y-74483424D01*
X118431257Y-74483432D01*
X118068244Y-74693019D01*
X118068218Y-74693035D01*
X117724855Y-74933460D01*
X117403737Y-75202912D01*
X117107331Y-75499318D01*
X116837879Y-75820436D01*
X116597454Y-76163799D01*
X116597438Y-76163825D01*
X116387851Y-76526838D01*
X116387843Y-76526854D01*
X116210698Y-76906741D01*
X116210695Y-76906749D01*
X116210692Y-76906755D01*
X116210691Y-76906759D01*
X116189374Y-76965327D01*
X116067316Y-77300678D01*
X115958828Y-77705565D01*
X115958824Y-77705582D01*
X115886035Y-78118386D01*
X115886035Y-78118390D01*
X115849500Y-78535983D01*
X106400500Y-78535983D01*
X106363965Y-78118393D01*
X106291174Y-77705573D01*
X106182680Y-77300668D01*
X106039309Y-76906759D01*
X106010515Y-76845011D01*
X105862156Y-76526854D01*
X105862148Y-76526838D01*
X105752848Y-76337526D01*
X105652557Y-76163817D01*
X105652549Y-76163806D01*
X105652545Y-76163799D01*
X105412120Y-75820436D01*
X105142668Y-75499318D01*
X104846262Y-75202912D01*
X104525144Y-74933460D01*
X104181781Y-74693035D01*
X104181770Y-74693028D01*
X104181764Y-74693024D01*
X103850949Y-74502027D01*
X103818742Y-74483432D01*
X103818726Y-74483424D01*
X103438839Y-74306279D01*
X103438831Y-74306276D01*
X103438829Y-74306275D01*
X103438822Y-74306272D01*
X103044913Y-74162901D01*
X103044912Y-74162900D01*
X103044902Y-74162897D01*
X102640015Y-74054409D01*
X102640018Y-74054409D01*
X102640008Y-74054407D01*
X102640002Y-74054405D01*
X102639998Y-74054405D01*
X102227192Y-73981616D01*
X101809597Y-73945081D01*
X101809594Y-73945081D01*
X101390406Y-73945081D01*
X101390402Y-73945081D01*
X100972809Y-73981616D01*
X100972805Y-73981616D01*
X100560001Y-74054405D01*
X100559984Y-74054409D01*
X100155097Y-74162897D01*
X99958132Y-74234586D01*
X99761178Y-74306272D01*
X99761174Y-74306273D01*
X99761168Y-74306276D01*
X99761160Y-74306279D01*
X99381273Y-74483424D01*
X99381257Y-74483432D01*
X99018244Y-74693019D01*
X99018218Y-74693035D01*
X98674855Y-74933460D01*
X98353737Y-75202912D01*
X98057331Y-75499318D01*
X97787879Y-75820436D01*
X97547454Y-76163799D01*
X97547438Y-76163825D01*
X97337851Y-76526838D01*
X97337843Y-76526854D01*
X97160698Y-76906741D01*
X97160695Y-76906749D01*
X97160692Y-76906755D01*
X97160691Y-76906759D01*
X97139374Y-76965327D01*
X97017316Y-77300678D01*
X96908828Y-77705565D01*
X96908824Y-77705582D01*
X96836035Y-78118386D01*
X96836035Y-78118390D01*
X96799500Y-78535983D01*
X95556500Y-78535983D01*
X95556500Y-68624500D01*
X95576185Y-68557461D01*
X95628989Y-68511706D01*
X95680500Y-68500500D01*
X140091500Y-68500500D01*
X140158539Y-68520185D01*
G37*
%TD.AperFunction*%
M02*
